<svg width="15" height="15" viewBox="0 0 15 15" fill="none" xmlns="http://www.w3.org/2000/svg">
<path d="M7.74984 0.416992C6.81964 0.416992 5.89855 0.600208 5.03916 0.956179C4.17977 1.31215 3.39891 1.8339 2.74116 2.49165C1.41278 3.82004 0.666504 5.62171 0.666504 7.50033C0.666504 9.37894 1.41278 11.1806 2.74116 12.509C3.39891 13.1667 4.17977 13.6885 5.03916 14.0445C5.89855 14.4004 6.81964 14.5837 7.74984 14.5837C9.62845 14.5837 11.4301 13.8374 12.7585 12.509C14.0869 11.1806 14.8332 9.37894 14.8332 7.50033C14.8332 6.57013 14.65 5.64904 14.294 4.78965C13.938 3.93026 13.4163 3.1494 12.7585 2.49165C12.1008 1.8339 11.3199 1.31215 10.4605 0.956179C9.60112 0.600208 8.68003 0.416992 7.74984 0.416992ZM10.7248 10.4753L7.0415 8.20866V3.95866H8.104V7.64199L11.2915 9.55449L10.7248 10.4753Z" fill="#859BC8" fill-opacity="0.8"/>
</svg>
