<svg width="24" height="25" viewBox="0 0 24 25" fill="none" xmlns="http://www.w3.org/2000/svg">
<mask id="path-1-inside-1_1027_8296" fill="white">
<path fill-rule="evenodd" clip-rule="evenodd" d="M5 6.5C5 4.84315 6.34315 3.5 8 3.5L12 3.5C13.6569 3.5 15 4.84315 15 6.5C15 7.88347 14.0635 9.04821 12.7899 9.39492C12.9255 9.73691 13 10.1097 13 10.5C13 11.0347 12.8601 11.5366 12.615 11.9714C12.806 12.0936 12.9822 12.2369 13.1404 12.3979C12.5883 12.7835 12.1177 13.2777 11.7595 13.8495C11.5761 13.6356 11.3039 13.5 11 13.5L7 13.5C6.44772 13.5 6 13.9477 6 14.5C6 15.0523 6.44772 15.5 7 15.5L11 15.5C11.0341 15.5 11.0678 15.4983 11.101 15.495C11.0348 15.8196 11 16.1558 11 16.5C11 17.9163 11.5889 19.1951 12.5351 20.1048C12.0032 20.9434 11.0666 21.5 10 21.5H6C4.34315 21.5 3 20.1569 3 18.5C3 17.4377 3.55209 16.5044 4.38499 15.9714C4.13986 15.5366 4 15.0347 4 14.5C4 13.9653 4.13986 13.4634 4.38499 13.0286C3.5521 12.4956 3 11.5623 3 10.5C3 9.11653 3.93647 7.95179 5.21009 7.60508C5.07451 7.26309 5 6.89025 5 6.5ZM10 9.5C10.5523 9.5 11 9.94772 11 10.5C11 11.0523 10.5523 11.5 10 11.5H6C5.44772 11.5 5 11.0523 5 10.5C5 9.94772 5.44772 9.5 6 9.5H10ZM12 7.5L8 7.5C7.44772 7.5 7 7.05228 7 6.5C7 5.94772 7.44772 5.5 8 5.5H12C12.5523 5.5 13 5.94772 13 6.5C13 7.05228 12.5523 7.5 12 7.5ZM10 17.5C10.5523 17.5 11 17.9477 11 18.5C11 19.0523 10.5523 19.5 10 19.5H6C5.44772 19.5 5 19.0523 5 18.5C5 17.9477 5.44772 17.5 6 17.5H10Z"/>
</mask>
<path fill-rule="evenodd" clip-rule="evenodd" d="M5 6.5C5 4.84315 6.34315 3.5 8 3.5L12 3.5C13.6569 3.5 15 4.84315 15 6.5C15 7.88347 14.0635 9.04821 12.7899 9.39492C12.9255 9.73691 13 10.1097 13 10.5C13 11.0347 12.8601 11.5366 12.615 11.9714C12.806 12.0936 12.9822 12.2369 13.1404 12.3979C12.5883 12.7835 12.1177 13.2777 11.7595 13.8495C11.5761 13.6356 11.3039 13.5 11 13.5L7 13.5C6.44772 13.5 6 13.9477 6 14.5C6 15.0523 6.44772 15.5 7 15.5L11 15.5C11.0341 15.5 11.0678 15.4983 11.101 15.495C11.0348 15.8196 11 16.1558 11 16.5C11 17.9163 11.5889 19.1951 12.5351 20.1048C12.0032 20.9434 11.0666 21.5 10 21.5H6C4.34315 21.5 3 20.1569 3 18.5C3 17.4377 3.55209 16.5044 4.38499 15.9714C4.13986 15.5366 4 15.0347 4 14.5C4 13.9653 4.13986 13.4634 4.38499 13.0286C3.5521 12.4956 3 11.5623 3 10.5C3 9.11653 3.93647 7.95179 5.21009 7.60508C5.07451 7.26309 5 6.89025 5 6.5ZM10 9.5C10.5523 9.5 11 9.94772 11 10.5C11 11.0523 10.5523 11.5 10 11.5H6C5.44772 11.5 5 11.0523 5 10.5C5 9.94772 5.44772 9.5 6 9.5H10ZM12 7.5L8 7.5C7.44772 7.5 7 7.05228 7 6.5C7 5.94772 7.44772 5.5 8 5.5H12C12.5523 5.5 13 5.94772 13 6.5C13 7.05228 12.5523 7.5 12 7.5ZM10 17.5C10.5523 17.5 11 17.9477 11 18.5C11 19.0523 10.5523 19.5 10 19.5H6C5.44772 19.5 5 19.0523 5 18.5C5 17.9477 5.44772 17.5 6 17.5H10Z" fill="#6C90D9"/>
<path d="M12.7899 9.39492L12.1308 6.97393L9.42311 7.71105L10.4575 10.3197L12.7899 9.39492ZM12.615 11.9714L10.4293 10.7393L9.26412 12.8062L11.2628 14.0849L12.615 11.9714ZM13.1404 12.3979L14.5771 14.4549L17.0098 12.7559L14.9301 10.6393L13.1404 12.3979ZM11.7595 13.8495L9.85471 15.4827L12.075 18.0722L13.8858 15.1815L11.7595 13.8495ZM11.101 15.495L13.5595 15.9964L14.2396 12.6616L10.8528 12.9982L11.101 15.495ZM12.5351 20.1048L14.6539 21.4487L15.7522 19.7172L14.2741 18.2961L12.5351 20.1048ZM4.38499 15.9714L5.73742 18.0848L7.73585 16.8059L6.57066 14.7392L4.38499 15.9714ZM4.38499 13.0286L6.57066 14.2608L7.73585 12.1941L5.73744 10.9152L4.38499 13.0286ZM5.21009 7.60508L5.86914 10.0261L8.57674 9.28899L7.54257 6.68038L5.21009 7.60508ZM7.50909 6.5C7.50909 6.22888 7.72888 6.00909 8 6.00909V0.990909C4.95742 0.990909 2.49091 3.45742 2.49091 6.5H7.50909ZM8 6.00909L12 6.00909V0.990909L8 0.990909V6.00909ZM12 6.00909C12.2711 6.00909 12.4909 6.22886 12.4909 6.5H17.5091C17.5091 3.45744 15.0427 0.990909 12 0.990909V6.00909ZM12.4909 6.5C12.4909 6.7228 12.3403 6.91692 12.1308 6.97393L13.449 11.8159C15.7867 11.1795 17.5091 9.04414 17.5091 6.5H12.4909ZM10.4575 10.3197C10.4782 10.3721 10.4909 10.4315 10.4909 10.5L15.5091 10.5C15.5091 9.78802 15.3728 9.1017 15.1223 8.4701L10.4575 10.3197ZM10.4909 10.5C10.4909 10.5916 10.4681 10.6704 10.4293 10.7393L14.8007 13.2035C15.2521 12.4028 15.5091 11.4778 15.5091 10.5L10.4909 10.5ZM11.2628 14.0849C11.2939 14.1048 11.3235 14.1288 11.3507 14.1565L14.9301 10.6393C14.6409 10.345 14.3181 10.0824 13.9672 9.85786L11.2628 14.0849ZM11.7037 10.3408C10.8759 10.919 10.1706 11.6596 9.63317 12.5175L13.8858 15.1815C14.0648 14.8958 14.3007 14.648 14.5771 14.4549L11.7037 10.3408ZM13.6643 12.2163C13.0248 11.4705 12.0673 10.9909 11 10.9909V16.0091C10.5405 16.0091 10.1274 15.8007 9.85471 15.4827L13.6643 12.2163ZM11 10.9909H7L7 16.0091H11V10.9909ZM7 10.9909C5.06202 10.9909 3.49091 12.5619 3.49091 14.5H8.50909C8.50909 15.3335 7.83342 16.0091 7 16.0091L7 10.9909ZM3.49091 14.5C3.49091 16.4381 5.06202 18.0091 7 18.0091L7 12.9909C7.83342 12.9909 8.50909 13.6665 8.50909 14.5H3.49091ZM7 18.0091H11V12.9909L7 12.9909L7 18.0091ZM11 18.0091C11.1175 18.0091 11.2341 18.0032 11.3492 17.9918L10.8528 12.9982C10.9015 12.9934 10.9507 12.9909 11 12.9909V18.0091ZM8.64252 14.9936C8.54288 15.4822 8.49091 15.9863 8.49091 16.5H13.5091C13.5091 16.3253 13.5267 16.157 13.5595 15.9964L8.64252 14.9936ZM8.49091 16.5C8.49091 18.6267 9.3783 20.5504 10.7961 21.9135L14.2741 18.2961C13.7995 17.8398 13.5091 17.2059 13.5091 16.5H8.49091ZM10.4163 18.7609C10.3252 18.9045 10.1719 18.9909 10 18.9909L10 24.0091C11.9613 24.0091 13.6812 22.9823 14.6539 21.4487L10.4163 18.7609ZM10 18.9909H6L6 24.0091H10L10 18.9909ZM6 18.9909C5.72886 18.9909 5.50909 18.7711 5.50909 18.5H0.490909C0.490909 21.5427 2.95744 24.0091 6 24.0091L6 18.9909ZM5.50909 18.5C5.50909 18.3287 5.59482 18.1761 5.73742 18.0848L3.03256 13.858C1.50936 14.8327 0.490909 16.5467 0.490909 18.5H5.50909ZM6.57066 14.7392C6.53195 14.6705 6.50909 14.5917 6.50909 14.5H1.49091C1.49091 15.4777 1.74777 16.4027 2.19932 17.2036L6.57066 14.7392ZM6.50909 14.5C6.50909 14.4083 6.53195 14.3295 6.57066 14.2608L2.19932 11.7964C1.74777 12.5973 1.49091 13.5223 1.49091 14.5H6.50909ZM5.73744 10.9152C5.59482 10.8239 5.50909 10.6712 5.50909 10.5H0.490909C0.490909 12.4534 1.50938 14.1673 3.03254 15.142L5.73744 10.9152ZM5.50909 10.5C5.50909 10.2772 5.65972 10.0831 5.86914 10.0261L4.55104 5.18409C2.21322 5.8205 0.490909 7.95589 0.490909 10.5H5.50909ZM7.54257 6.68038C7.52176 6.62789 7.50909 6.56848 7.50909 6.5H2.49091C2.49091 7.21202 2.62726 7.89829 2.87761 8.52978L7.54257 6.68038ZM10 12.0091C9.16653 12.0091 8.49091 11.3334 8.49091 10.5H13.5091C13.5091 8.56202 11.9381 6.99091 10 6.99091V12.0091ZM8.49091 10.5C8.49091 9.66657 9.16657 8.99091 10 8.99091V14.0091C11.938 14.0091 13.5091 12.438 13.5091 10.5H8.49091ZM10 8.99091H6L6 14.0091H10V8.99091ZM6 8.99091C6.83342 8.99091 7.50909 9.66653 7.50909 10.5H2.49091C2.49091 12.4381 4.06202 14.0091 6 14.0091L6 8.99091ZM7.50909 10.5C7.50909 11.3335 6.83345 12.0091 6 12.0091L6 6.99091C4.06199 6.99091 2.49091 8.56199 2.49091 10.5H7.50909ZM6 12.0091H10V6.99091L6 6.99091L6 12.0091ZM12 4.99091H8V10.0091H12V4.99091ZM8 4.99091C8.83345 4.99091 9.50909 5.66655 9.50909 6.5L4.49091 6.5C4.49091 8.43801 6.06199 10.0091 8 10.0091V4.99091ZM9.50909 6.5C9.50909 7.33345 8.83345 8.00909 8 8.00909V2.99091C6.06199 2.99091 4.49091 4.56199 4.49091 6.5L9.50909 6.5ZM8 8.00909H12V2.99091H8V8.00909ZM12 8.00909C11.1665 8.00909 10.4909 7.33342 10.4909 6.5L15.5091 6.5C15.5091 4.56202 13.9381 2.99091 12 2.99091V8.00909ZM10.4909 6.5C10.4909 5.66658 11.1665 4.99091 12 4.99091V10.0091C13.9381 10.0091 15.5091 8.43798 15.5091 6.5L10.4909 6.5ZM10 20.0091C9.16657 20.0091 8.49091 19.3334 8.49091 18.5H13.5091C13.5091 16.562 11.938 14.9909 10 14.9909V20.0091ZM8.49091 18.5C8.49091 17.6666 9.16657 16.9909 10 16.9909L10 22.0091C11.938 22.0091 13.5091 20.438 13.5091 18.5H8.49091ZM10 16.9909H6V22.0091H10L10 16.9909ZM6 16.9909C6.83342 16.9909 7.50909 17.6665 7.50909 18.5H2.49091C2.49091 20.4381 4.06202 22.0091 6 22.0091V16.9909ZM7.50909 18.5C7.50909 19.3335 6.83342 20.0091 6 20.0091V14.9909C4.06202 14.9909 2.49091 16.5619 2.49091 18.5H7.50909ZM6 20.0091H10V14.9909H6V20.0091Z" fill="#6C90D9" mask="url(#path-1-inside-1_1027_8296)"/>
<mask id="path-3-inside-2_1027_8296" fill="white">
<path fill-rule="evenodd" clip-rule="evenodd" d="M15.9995 13.5C14.3426 13.5 12.9995 14.8431 12.9995 16.5C12.9995 18.1569 14.3426 19.5 15.9995 19.5C17.6564 19.5 18.9995 18.1569 18.9995 16.5C18.9995 14.8431 17.6564 13.5 15.9995 13.5ZM10.9995 16.5C10.9995 13.7386 13.2381 11.5 15.9995 11.5C18.7609 11.5 20.9995 13.7386 20.9995 16.5C20.9995 19.2614 18.7609 21.5 15.9995 21.5C13.2381 21.5 10.9995 19.2614 10.9995 16.5Z"/>
</mask>
<path fill-rule="evenodd" clip-rule="evenodd" d="M15.9995 13.5C14.3426 13.5 12.9995 14.8431 12.9995 16.5C12.9995 18.1569 14.3426 19.5 15.9995 19.5C17.6564 19.5 18.9995 18.1569 18.9995 16.5C18.9995 14.8431 17.6564 13.5 15.9995 13.5ZM10.9995 16.5C10.9995 13.7386 13.2381 11.5 15.9995 11.5C18.7609 11.5 20.9995 13.7386 20.9995 16.5C20.9995 19.2614 18.7609 21.5 15.9995 21.5C13.2381 21.5 10.9995 19.2614 10.9995 16.5Z" fill="#6C90D9"/>
<path d="M15.9995 10.9909C12.9569 10.9909 10.4904 13.4574 10.4904 16.5H15.5086C15.5086 16.2288 15.7283 16.0091 15.9995 16.0091V10.9909ZM10.4904 16.5C10.4904 19.5426 12.9569 22.0091 15.9995 22.0091V16.9909C15.7283 16.9909 15.5086 16.7712 15.5086 16.5H10.4904ZM15.9995 22.0091C19.0421 22.0091 21.5086 19.5426 21.5086 16.5H16.4904C16.4904 16.7712 16.2707 16.9909 15.9995 16.9909V22.0091ZM21.5086 16.5C21.5086 13.4574 19.0421 10.9909 15.9995 10.9909V16.0091C16.2707 16.0091 16.4904 16.2288 16.4904 16.5H21.5086ZM13.5086 16.5C13.5086 15.1243 14.6238 14.0091 15.9995 14.0091V8.99091C11.8524 8.99091 8.49042 12.3529 8.49042 16.5H13.5086ZM15.9995 14.0091C17.3752 14.0091 18.4904 15.1243 18.4904 16.5H23.5086C23.5086 12.3529 20.1466 8.99091 15.9995 8.99091V14.0091ZM18.4904 16.5C18.4904 17.8757 17.3752 18.9909 15.9995 18.9909L15.9995 24.0091C20.1466 24.0091 23.5086 20.6471 23.5086 16.5H18.4904ZM15.9995 18.9909C14.6238 18.9909 13.5086 17.8757 13.5086 16.5H8.49042C8.49042 20.6471 11.8524 24.0091 15.9995 24.0091L15.9995 18.9909Z" fill="#6C90D9" mask="url(#path-3-inside-2_1027_8296)"/>
</svg>
