<svg width="16" height="14" viewBox="0 0 16 14" fill="none" xmlns="http://www.w3.org/2000/svg">
<path d="M2.12582 0C2.03253 2.27601e-05 1.94137 0.0278775 1.864 0.0800003C1.78663 0.132123 1.72657 0.206144 1.69151 0.292591C1.65645 0.379039 1.64797 0.473982 1.66717 0.565273C1.68637 0.656564 1.73237 0.740052 1.79928 0.805054L2.24117 1.24695C2.28437 1.29193 2.3361 1.32785 2.39335 1.35259C2.4506 1.37734 2.51221 1.39041 2.57457 1.39104C2.63693 1.39167 2.69879 1.37986 2.75653 1.35629C2.81427 1.33271 2.86672 1.29786 2.91082 1.25376C2.95492 1.20966 2.98978 1.1572 3.01335 1.09946C3.03693 1.04173 3.04874 0.979864 3.04811 0.917501C3.04747 0.855139 3.0344 0.79353 3.00966 0.736283C2.98492 0.679035 2.949 0.6273 2.90401 0.584106L2.46212 0.142212C2.41843 0.0972162 2.36615 0.0614455 2.30838 0.0370179C2.25062 0.0125903 2.18854 2.50164e-06 2.12582 0ZM12.8735 0.000610352C12.7518 0.00415826 12.6362 0.0549426 12.5512 0.142212L12.1093 0.584106C12.0643 0.627299 12.0284 0.679035 12.0037 0.736283C11.9789 0.79353 11.9659 0.855139 11.9652 0.917502C11.9646 0.979865 11.9764 1.04173 12 1.09947C12.0236 1.15721 12.0584 1.20966 12.1025 1.25376C12.1466 1.29786 12.1991 1.33272 12.2568 1.35629C12.3146 1.37986 12.3764 1.39168 12.4388 1.39104C12.5011 1.39041 12.5628 1.37734 12.62 1.3526C12.6772 1.32785 12.729 1.29194 12.7722 1.24695L13.2141 0.805054C13.2817 0.739193 13.3279 0.654451 13.3465 0.561918C13.3652 0.469385 13.3555 0.373372 13.3187 0.286444C13.2819 0.199517 13.2197 0.125724 13.1403 0.0747242C13.0608 0.0237243 12.9679 -0.00210722 12.8735 0.000610352ZM7.50668 0.698242C5.09723 0.69894 3.13168 2.65803 3.13168 5.06836C3.13168 6.31819 3.66024 7.44945 4.50314 8.24585C4.60227 8.33947 4.67509 8.47135 4.70882 8.62244L5.4797 12.0923C5.62206 12.7331 6.19592 13.1934 6.85238 13.1934H7.50668H8.16097C8.8175 13.1934 9.3912 12.7331 9.53365 12.0923L10.3051 8.62244V8.62183C10.3386 8.47117 10.411 8.34003 10.5102 8.24646V8.24585H10.5108C11.3533 7.44949 11.8817 6.31819 11.8817 5.06836C11.8817 2.65803 9.91612 0.69894 7.50668 0.698242ZM7.50668 1.63574C9.41098 1.63629 10.9442 3.16494 10.9442 5.06836C10.9442 6.05478 10.53 6.93734 9.8663 7.5647C9.61717 7.79979 9.45987 8.10262 9.38961 8.41919L9.0234 10.0684H5.98995L5.62374 8.41858C5.5531 8.10217 5.39604 7.79983 5.14706 7.5647C4.48308 6.93735 4.06918 6.05478 4.06918 5.06836C4.06918 3.16494 5.60237 1.63629 7.50668 1.63574ZM0.475426 4.13086C0.413311 4.12998 0.351641 4.14146 0.294 4.16462C0.236358 4.18778 0.183895 4.22217 0.13966 4.26578C0.0954238 4.3094 0.0602975 4.36137 0.036322 4.41868C0.0123465 4.47599 0 4.53749 0 4.59961C0 4.66173 0.0123465 4.72323 0.036322 4.78054C0.0602975 4.83785 0.0954238 4.88982 0.13966 4.93343C0.183895 4.97705 0.236358 5.01144 0.294 5.0346C0.351641 5.05776 0.413311 5.06924 0.475426 5.06836H1.41293C1.47504 5.06924 1.53671 5.05776 1.59435 5.0346C1.65199 5.01144 1.70446 4.97705 1.74869 4.93343C1.79293 4.88982 1.82805 4.83785 1.85203 4.78054C1.87601 4.72323 1.88835 4.66173 1.88835 4.59961C1.88835 4.53749 1.87601 4.47599 1.85203 4.41868C1.82805 4.36137 1.79293 4.3094 1.74869 4.26578C1.70446 4.22217 1.65199 4.18778 1.59435 4.16462C1.53671 4.14146 1.47504 4.12998 1.41293 4.13086H0.475426ZM13.6004 4.13086C13.5383 4.12998 13.4766 4.14146 13.419 4.16462C13.3614 4.18778 13.3089 4.22217 13.2647 4.26578C13.2204 4.3094 13.1853 4.36137 13.1613 4.41868C13.1373 4.47599 13.125 4.53749 13.125 4.59961C13.125 4.66173 13.1373 4.72323 13.1613 4.78054C13.1853 4.83785 13.2204 4.88982 13.2647 4.93343C13.3089 4.97705 13.3614 5.01144 13.419 5.0346C13.4766 5.05776 13.5383 5.06924 13.6004 5.06836H14.5379C14.6 5.06924 14.6617 5.05776 14.7194 5.0346C14.777 5.01144 14.8295 4.97705 14.8737 4.93343C14.9179 4.88982 14.9531 4.83785 14.977 4.78054C15.001 4.72323 15.0134 4.66173 15.0134 4.59961C15.0134 4.53749 15.001 4.47599 14.977 4.41868C14.9531 4.36137 14.9179 4.3094 14.8737 4.26578C14.8295 4.22217 14.777 4.18778 14.7194 4.16462C14.6617 4.14146 14.6 4.12998 14.5379 4.13086H13.6004ZM12.4359 7.81006C12.3426 7.81008 12.2514 7.83794 12.1741 7.89006C12.0967 7.94218 12.0366 8.0162 12.0016 8.10265C11.9665 8.1891 11.958 8.28404 11.9772 8.37533C11.9964 8.46662 12.0424 8.55011 12.1093 8.61511L12.5512 9.05701C12.5944 9.10199 12.6462 9.13791 12.7034 9.16265C12.7607 9.18739 12.8223 9.20046 12.8846 9.2011C12.947 9.20173 13.0089 9.18992 13.0666 9.16634C13.1243 9.14277 13.1768 9.10791 13.2209 9.06382C13.265 9.01972 13.2998 8.96726 13.3234 8.90952C13.347 8.85178 13.3588 8.78992 13.3582 8.72756C13.3575 8.6652 13.3445 8.60359 13.3197 8.54634C13.295 8.48909 13.2591 8.43736 13.2141 8.39417L12.7722 7.95227C12.7285 7.90727 12.6762 7.8715 12.6184 7.84708C12.5607 7.82265 12.4986 7.81006 12.4359 7.81006ZM2.56344 7.81067C2.4417 7.81422 2.32612 7.865 2.24117 7.95227L1.79928 8.39417C1.75429 8.43736 1.71838 8.48909 1.69363 8.54634C1.66889 8.60359 1.65582 8.6652 1.65519 8.72756C1.65455 8.78992 1.66637 8.85178 1.68994 8.90952C1.71351 8.96726 1.74837 9.01972 1.79247 9.06382C1.83657 9.10791 1.88902 9.14277 1.94676 9.16634C2.0045 9.18992 2.06636 9.20173 2.12873 9.2011C2.19109 9.20046 2.2527 9.18739 2.30994 9.16265C2.36719 9.13791 2.41893 9.10199 2.46212 9.05701L2.90401 8.61511C2.97164 8.54925 3.01781 8.46451 3.03647 8.37198C3.05514 8.27944 3.04544 8.18343 3.00864 8.0965C2.97183 8.00958 2.90965 7.93578 2.83021 7.88478C2.75078 7.83378 2.6578 7.80795 2.56344 7.81067ZM6.19869 11.0059H8.81466L8.61874 11.889C8.57056 12.1057 8.3832 12.2559 8.16097 12.2559H7.50668H6.85238C6.62947 12.2559 6.44288 12.1063 6.39462 11.889L6.19869 11.0059Z" fill="#FFBE06"/>
</svg>
