<svg width="24" height="25" viewBox="0 0 24 25" fill="none" xmlns="http://www.w3.org/2000/svg">
<mask id="path-1-inside-1_1048_9461" fill="white">
<path d="M5 2.5C5 2.5 7.62338 4.0861 10.4375 6.74609L2.04688 15.0391L3.45312 16.4609L11.8496 8.16211C13.6991 10.1345 15.0037 11.9791 15.6074 12.8926L14 14.5V16.5L13 15.5H8V20.5L10 22.5H12.8281L10 19.6719V17.5H12.1719L14 19.3281V22.5H16V15.3281L18 13.3281L20 15.3281V22.5H22V14.5L18 10.5L15.9258 12.5742C15.7711 11.2452 15.2538 8.70973 13.5098 6.52148L14.0781 5.96094L12.6719 4.53906L12.1113 5.09375C8.97393 2.50233 5 2.5 5 2.5Z"/>
</mask>
<path d="M5 2.5C5 2.5 7.62338 4.0861 10.4375 6.74609L2.04688 15.0391L3.45312 16.4609L11.8496 8.16211C13.6991 10.1345 15.0037 11.9791 15.6074 12.8926L14 14.5V16.5L13 15.5H8V20.5L10 22.5H12.8281L10 19.6719V17.5H12.1719L14 19.3281V22.5H16V15.3281L18 13.3281L20 15.3281V22.5H22V14.5L18 10.5L15.9258 12.5742C15.7711 11.2452 15.2538 8.70973 13.5098 6.52148L14.0781 5.96094L12.6719 4.53906L12.1113 5.09375C8.97393 2.50233 5 2.5 5 2.5Z" fill="#FFBE06"/>
<path d="M5 2.5L5.00147 -0.00909042L-4.00827 -0.0143807L3.70183 4.64716L5 2.5ZM10.4375 6.74609L12.2013 8.53064L14.0476 6.70585L12.1611 4.92267L10.4375 6.74609ZM2.04688 15.0391L0.283095 13.2545L-1.50204 15.0189L0.262904 16.8034L2.04688 15.0391ZM3.45312 16.4609L1.66915 18.2253L3.43295 20.0087L5.21691 18.2455L3.45312 16.4609ZM11.8496 8.16211L13.6799 6.44585L11.9179 4.56678L10.0858 6.37757L11.8496 8.16211ZM15.6074 12.8926L17.3816 14.6668L18.8302 13.2182L17.7006 11.5091L15.6074 12.8926ZM14 14.5L12.2258 12.7258L11.4909 13.4607V14.5H14ZM14 16.5L12.2258 18.2742L16.5091 22.5575V16.5H14ZM13 15.5L14.7742 13.7258L14.0393 12.9909H13V15.5ZM8 15.5V12.9909H5.49091V15.5H8ZM8 20.5H5.49091V21.5393L6.2258 22.2742L8 20.5ZM10 22.5L8.2258 24.2742L8.9607 25.0091H10V22.5ZM12.8281 22.5V25.0091H18.8856L14.6023 20.7258L12.8281 22.5ZM10 19.6719H7.49091V20.7112L8.2258 21.4461L10 19.6719ZM10 17.5V14.9909H7.49091V17.5H10ZM12.1719 17.5L13.9461 15.7258L13.2112 14.9909H12.1719V17.5ZM14 19.3281H16.5091V18.2888L15.7742 17.5539L14 19.3281ZM14 22.5H11.4909V25.0091H14V22.5ZM16 22.5V25.0091H18.5091V22.5H16ZM16 15.3281L14.2258 13.5539L13.4909 14.2888V15.3281H16ZM18 13.3281L19.7742 11.5539L18 9.77973L16.2258 11.5539L18 13.3281ZM20 15.3281H22.5091V14.2888L21.7742 13.5539L20 15.3281ZM20 22.5H17.4909V25.0091H20V22.5ZM22 22.5V25.0091H24.5091V22.5H22ZM22 14.5H24.5091V13.4607L23.7742 12.7258L22 14.5ZM18 10.5L19.7742 8.7258L18 6.95161L16.2258 8.7258L18 10.5ZM15.9258 12.5742L13.4335 12.8643L14.0331 18.0153L17.7 14.3484L15.9258 12.5742ZM13.5098 6.52148L11.7479 4.73505L10.1408 6.3201L11.5476 8.08531L13.5098 6.52148ZM14.0781 5.96094L15.84 7.74737L17.6289 5.98303L15.8621 4.19657L14.0781 5.96094ZM12.6719 4.53906L14.4558 2.7747L12.691 0.990243L10.907 2.75557L12.6719 4.53906ZM12.1113 5.09375L10.5135 7.02827L12.2631 8.47344L13.8762 6.87724L12.1113 5.09375ZM5 2.5C3.70183 4.64716 3.70155 4.64699 3.70129 4.64683C3.70122 4.64679 3.70097 4.64664 3.70082 4.64655C3.70053 4.64637 3.70027 4.64622 3.70005 4.64608C3.69962 4.64582 3.69934 4.64565 3.69922 4.64558C3.69898 4.64543 3.69937 4.64567 3.70036 4.64627C3.70235 4.64749 3.7068 4.65021 3.71363 4.65442C3.72728 4.66284 3.75045 4.6772 3.78254 4.69738C3.84674 4.73775 3.94652 4.80132 4.07722 4.8871C4.33884 5.05879 4.72302 5.31857 5.19267 5.65837C6.13511 6.34024 7.40514 7.3324 8.71394 8.56952L12.1611 4.92267C10.6557 3.49979 9.20702 2.36891 8.13423 1.59273C7.59627 1.20351 7.14873 0.900513 6.83052 0.691684C6.67131 0.5872 6.54416 0.506081 6.4539 0.449321C6.40876 0.420935 6.37282 0.398622 6.34667 0.382506C6.3336 0.374447 6.32297 0.367936 6.31486 0.362988C6.31081 0.360513 6.30738 0.35843 6.3046 0.356739C6.30321 0.355893 6.30198 0.355145 6.3009 0.354496C6.30037 0.354172 6.29987 0.353872 6.29942 0.353596C6.29919 0.353459 6.29888 0.353271 6.29877 0.353202C6.29847 0.35302 6.29817 0.352844 5 2.5ZM8.67372 4.96154L0.283095 13.2545L3.81065 16.8236L12.2013 8.53064L8.67372 4.96154ZM0.262904 16.8034L1.66915 18.2253L5.2371 14.6966L3.83085 13.2747L0.262904 16.8034ZM5.21691 18.2455L13.6134 9.94665L10.0858 6.37757L1.68934 14.6764L5.21691 18.2455ZM10.0193 9.87837C11.7454 11.7191 12.9637 13.4432 13.5142 14.2761L17.7006 11.5091C17.0437 10.5151 15.6529 8.54993 13.6799 6.44585L10.0193 9.87837ZM13.8332 11.1184L12.2258 12.7258L15.7742 16.2742L17.3816 14.6668L13.8332 11.1184ZM11.4909 14.5V16.5H16.5091V14.5H11.4909ZM15.7742 14.7258L14.7742 13.7258L11.2258 17.2742L12.2258 18.2742L15.7742 14.7258ZM13 12.9909H8V18.0091H13V12.9909ZM5.49091 15.5V20.5H10.5091V15.5H5.49091ZM6.2258 22.2742L8.2258 24.2742L11.7742 20.7258L9.7742 18.7258L6.2258 22.2742ZM10 25.0091H12.8281V19.9909H10V25.0091ZM14.6023 20.7258L11.7742 17.8977L8.2258 21.4461L11.0539 24.2742L14.6023 20.7258ZM12.5091 19.6719V17.5H7.49091V19.6719H12.5091ZM10 20.0091H12.1719V14.9909H10V20.0091ZM10.3977 19.2742L12.2258 21.1023L15.7742 17.5539L13.9461 15.7258L10.3977 19.2742ZM11.4909 19.3281V22.5H16.5091V19.3281H11.4909ZM14 25.0091H16V19.9909H14V25.0091ZM18.5091 22.5V15.3281H13.4909V22.5H18.5091ZM17.7742 17.1023L19.7742 15.1023L16.2258 11.5539L14.2258 13.5539L17.7742 17.1023ZM16.2258 15.1023L18.2258 17.1023L21.7742 13.5539L19.7742 11.5539L16.2258 15.1023ZM17.4909 15.3281V22.5H22.5091V15.3281H17.4909ZM20 25.0091H22V19.9909H20V25.0091ZM24.5091 22.5V14.5H19.4909V22.5H24.5091ZM23.7742 12.7258L19.7742 8.7258L16.2258 12.2742L20.2258 16.2742L23.7742 12.7258ZM16.2258 8.7258L14.1516 10.8L17.7 14.3484L19.7742 12.2742L16.2258 8.7258ZM18.418 12.2841C18.2384 10.7405 17.6335 7.66981 15.4719 4.95766L11.5476 8.08531C12.8741 9.74965 13.3038 11.75 13.4335 12.8643L18.418 12.2841ZM15.2716 8.30791L15.84 7.74737L12.3162 4.17451L11.7479 4.73505L15.2716 8.30791ZM15.8621 4.19657L14.4558 2.7747L10.8879 6.30343L12.2942 7.7253L15.8621 4.19657ZM10.907 2.75557L10.3465 3.31026L13.8762 6.87724L14.4367 6.32255L10.907 2.75557ZM13.7092 3.15923C11.7478 1.53913 9.57236 0.76175 7.95127 0.382103C7.13127 0.190066 6.42383 0.0928915 5.91112 0.0433817C5.65389 0.0185423 5.44314 0.00545907 5.2888 -0.00143218C5.21155 -0.00488114 5.14819 -0.00678945 5.09996 -0.00783873C5.07583 -0.00836349 5.05547 -0.00867391 5.03901 -0.00885439C5.03078 -0.00894451 5.02352 -0.00900221 5.01726 -0.00903821C5.01413 -0.00905609 5.01125 -0.00906849 5.00862 -0.00907683C5.0073 -0.00908089 5.00605 -0.00908399 5.00486 -0.00908637C5.00426 -0.00908732 5.00341 -0.00908852 5.00312 -0.00908899C5.00229 -0.00908995 5.00147 -0.00909042 5 2.5C4.99853 5.00909 4.99774 5.00909 4.99697 5.00909C4.99674 5.00909 4.99598 5.00909 4.99551 5.00909C4.99456 5.00908 4.99367 5.00908 4.99284 5.00908C4.99117 5.00907 4.98973 5.00907 4.98852 5.00906C4.98611 5.00905 4.9846 5.00903 4.98398 5.00903C4.98276 5.00901 4.98509 5.00903 4.99083 5.00916C5.00234 5.00941 5.02743 5.01008 5.06497 5.01176C5.1402 5.01511 5.26443 5.02246 5.42878 5.03833C5.75923 5.07024 6.24135 5.13561 6.80701 5.26808C7.95723 5.53746 9.3375 6.05695 10.5135 7.02827L13.7092 3.15923Z" fill="#FFBE06" mask="url(#path-1-inside-1_1048_9461)"/>
</svg>
