<svg width="23" height="23" viewBox="0 0 23 23" fill="none" xmlns="http://www.w3.org/2000/svg">
<path d="M17.3884 0.479523C17.2472 0.480545 17.1094 0.523166 16.9922 0.602061C16.875 0.680956 16.7837 0.792627 16.7296 0.923127L13.6122 8.44941C13.558 8.58068 13.5439 8.72506 13.5717 8.86432C13.5995 9.00359 13.668 9.1315 13.7684 9.23192C13.8688 9.33233 13.9967 9.40075 14.136 9.42855C14.2752 9.45635 14.4196 9.44227 14.5509 9.38809L22.0772 6.2707C22.1645 6.23461 22.2438 6.18166 22.3106 6.1149C22.3774 6.04813 22.4304 5.96885 22.4666 5.88158C22.5027 5.79432 22.5213 5.70078 22.5213 5.60633C22.5213 5.51187 22.5027 5.41834 22.4665 5.33109C21.5987 3.23646 19.9267 1.46918 17.6692 0.533804C17.5802 0.497089 17.4847 0.478631 17.3884 0.479523ZM17.7553 2.20434C19.0926 2.91718 20.1264 3.97899 20.7997 5.24405L15.6037 7.39656L17.7553 2.20434ZM10.0549 3.84492C6.67021 3.94124 3.48998 5.98016 2.1122 9.30574C0.241892 13.8209 2.39429 19.0178 6.90948 20.8881C11.4247 22.7584 16.6215 20.606 18.4918 16.0908C19.3918 13.9185 19.3556 11.5875 18.5807 9.55093C18.5465 9.46108 18.4946 9.379 18.4281 9.30957C18.3615 9.24014 18.2818 9.18476 18.1934 9.14671C18.1051 9.10866 18.0101 9.08872 17.9139 9.08807C17.8178 9.08741 17.7225 9.10606 17.6336 9.14289L11.1874 11.8129L13.8574 5.36665C13.8941 5.27782 13.9125 5.18254 13.9118 5.08644C13.911 4.99035 13.8909 4.89538 13.8528 4.80717C13.8146 4.71896 13.7592 4.63929 13.6898 4.57287C13.6203 4.50645 13.5382 4.45464 13.4484 4.42048C12.334 3.99651 11.1832 3.81281 10.0549 3.84492ZM10.0905 5.27774C10.7965 5.2587 11.5106 5.37671 12.2187 5.56786L9.41762 12.3305C9.26876 12.6874 9.35216 13.1036 9.62444 13.3758C9.62538 13.3768 9.62631 13.3777 9.62725 13.3787C9.80886 13.5584 10.0517 13.6566 10.302 13.6566C10.43 13.6566 10.5494 13.6324 10.6661 13.5845C10.667 13.5842 10.6679 13.5839 10.6689 13.5836L17.4371 10.7797C17.852 12.3076 17.8173 13.9631 17.1638 15.5405C15.5908 19.3379 11.2572 21.1331 7.45977 19.5601C3.66238 17.9871 1.86721 13.6534 3.4402 9.85603C4.59888 7.0593 7.25455 5.35423 10.0905 5.27774Z" fill="#FFBE06"/>
</svg>
