<svg width="16" height="16" viewBox="0 0 16 16" fill="none" xmlns="http://www.w3.org/2000/svg">
<path d="M7.99967 1.33398C4.32367 1.33398 1.33301 4.32465 1.33301 8.00065C1.33301 11.6767 4.32367 14.6673 7.99967 14.6673C11.6757 14.6673 14.6663 11.6767 14.6663 8.00065C14.6663 4.32465 11.6757 1.33398 7.99967 1.33398ZM10.833 8.50065H8.49967V10.834C8.49967 11.1103 8.27567 11.334 7.99967 11.334C7.72367 11.334 7.49967 11.1103 7.49967 10.834V8.50065H5.16634C4.89034 8.50065 4.66634 8.27698 4.66634 8.00065C4.66634 7.72432 4.89034 7.50065 5.16634 7.50065H7.49967V5.16732C7.49967 4.89098 7.72367 4.66732 7.99967 4.66732C8.27567 4.66732 8.49967 4.89098 8.49967 5.16732V7.50065H10.833C11.109 7.50065 11.333 7.72432 11.333 8.00065C11.333 8.27698 11.109 8.50065 10.833 8.50065Z" fill="#FFBE06"/>
</svg>
