<svg width="21" height="20" viewBox="0 0 21 20" fill="none" xmlns="http://www.w3.org/2000/svg">
<path d="M14.875 9.63517H7.875V5.60109C7.87372 5.17333 8.02667 4.75487 8.31448 4.39873C8.60228 4.04258 9.01199 3.76476 9.49172 3.60045C9.97145 3.43614 10.4996 3.39274 11.0093 3.47574C11.519 3.55875 11.9874 3.76441 12.355 4.0667C12.684 4.34338 12.9192 4.6861 13.0375 5.06082C13.0662 5.15258 13.1166 5.23878 13.1858 5.31451C13.255 5.39024 13.3416 5.454 13.4408 5.50217C13.5399 5.55033 13.6496 5.58195 13.7635 5.59521C13.8775 5.60848 13.9935 5.60313 14.105 5.57948C14.2165 5.55583 14.3212 5.51434 14.4132 5.45738C14.5051 5.40041 14.5826 5.32909 14.6411 5.24748C14.6996 5.16587 14.738 5.07557 14.7541 4.98174C14.7702 4.88792 14.7637 4.79239 14.735 4.70063C14.5357 4.07737 14.1403 3.50837 13.5887 3.05098C12.9764 2.54843 12.1969 2.20652 11.3487 2.06843C10.5005 1.93034 9.62162 2.00226 8.82303 2.27511C8.02444 2.54796 7.34195 3.00951 6.86176 3.60147C6.38156 4.19343 6.12518 4.88926 6.125 5.60109V9.63517C5.42881 9.63517 4.76113 9.86286 4.26884 10.2681C3.77656 10.6734 3.5 11.2231 3.5 11.7963V16.8389C3.5 17.412 3.77656 17.9617 4.26884 18.367C4.76113 18.7723 5.42881 19 6.125 19H14.875C15.5712 19 16.2389 18.7723 16.7312 18.367C17.2234 17.9617 17.5 17.412 17.5 16.8389V11.7963C17.5 11.2231 17.2234 10.6734 16.7312 10.2681C16.2389 9.86286 15.5712 9.63517 14.875 9.63517ZM15.75 16.8389C15.75 17.0299 15.6578 17.2132 15.4937 17.3483C15.3296 17.4834 15.1071 17.5593 14.875 17.5593H6.125C5.89294 17.5593 5.67038 17.4834 5.50628 17.3483C5.34219 17.2132 5.25 17.0299 5.25 16.8389V11.7963C5.25 11.6052 5.34219 11.422 5.50628 11.2869C5.67038 11.1518 5.89294 11.0759 6.125 11.0759H14.875C15.1071 11.0759 15.3296 11.1518 15.4937 11.2869C15.6578 11.422 15.75 11.6052 15.75 11.7963V16.8389Z" fill="#FFBE06"/>
</svg>
