<svg width="24" height="24" viewBox="0 0 24 24" fill="none" xmlns="http://www.w3.org/2000/svg">
<path d="M12 22C17.5228 22 22 17.5228 22 12C22 6.47715 17.5228 2 12 2C6.47715 2 2 6.47715 2 12C2 17.5228 6.47715 22 12 22Z" fill="#26A69A"/>
<path d="M16.5 6.5H7.5V9H16.5V6.5Z" fill="white"/>
<path d="M12 10.5C9.7715 10.5 6 10.8685 6 12.25C6 13.6315 9.7715 14 12 14C14.2285 14 18 13.6315 18 12.25C18 10.8685 14.2285 10.5 12 10.5ZM12 13C9.2385 13 7 12.5525 7 12C7 11.4475 9.2385 11 12 11C14.7615 11 17 11.4475 17 12C17 12.5525 14.7615 13 12 13Z" fill="white"/>
<path d="M12 12C12.5475 12 13.0465 11.9815 13.5 11.951V6.5H10.5V11.951C10.9535 11.9815 11.4525 12 12 12Z" fill="white"/>
<path d="M12.8615 12.9841C12.806 12.9861 12.75 12.9876 12.6935 12.9891C12.466 12.9956 12.236 13.0001 12 13.0001C11.764 13.0001 11.534 12.9956 11.3065 12.9896C11.25 12.9881 11.194 12.9866 11.1385 12.9846C10.921 12.9771 10.707 12.9676 10.5 12.9546V18.0001H13.5V12.9541C13.293 12.9671 13.079 12.9766 12.8615 12.9841Z" fill="white"/>
</svg>
