<svg xmlns="http://www.w3.org/2000/svg" width="20" height="20" viewBox="0 0 20 20" fill="none">
  <path d="M7.08743 5.28402C7.00028 5.36485 6.93113 5.46087 6.88396 5.56657C6.83678 5.67227 6.8125 5.78558 6.8125 5.90001C6.8125 6.01445 6.83678 6.12776 6.88396 6.23346C6.93113 6.33916 7.00028 6.43517 7.08743 6.51601L10.735 9.90615L7.08743 13.2963C7.00039 13.3772 6.93135 13.4732 6.88425 13.5789C6.83714 13.6846 6.8129 13.7979 6.8129 13.9123C6.8129 14.0267 6.83714 14.14 6.88425 14.2457C6.93135 14.3514 7.00039 14.4474 7.08743 14.5283C7.17446 14.6092 7.27779 14.6734 7.39151 14.7171C7.50523 14.7609 7.62711 14.7834 7.7502 14.7834C7.87329 14.7834 7.99517 14.7609 8.10889 14.7171C8.22261 14.6734 8.32594 14.6092 8.41297 14.5283L12.728 10.5178C12.8152 10.4369 12.8843 10.3409 12.9315 10.2352C12.9787 10.1295 13.003 10.0162 13.003 9.90178C13.003 9.78735 12.9787 9.67404 12.9315 9.56834C12.8843 9.46264 12.8152 9.36663 12.728 9.28579L8.41297 5.27528C8.05573 4.94326 7.45407 4.94326 7.08743 5.28402Z" fill="#00143E"/>
</svg>