<svg width="36" height="35" viewBox="0 0 36 35" fill="none" xmlns="http://www.w3.org/2000/svg">
<path d="M16.5087 21.1015C16.5087 23.0834 19.864 24.6918 24.0015 24.6918C28.139 24.6918 31.4942 23.0834 31.4942 21.1015M4.52039 13.921C4.52039 15.9028 7.87563 17.5113 12.0131 17.5113C13.7005 17.5113 15.2575 17.2442 16.5087 16.7932M4.52039 18.9474C4.52039 20.9292 7.87563 22.5376 12.0131 22.5376C13.7005 22.5376 15.256 22.2705 16.5087 21.8196M24.0015 18.9474C19.864 18.9474 16.5087 17.3389 16.5087 15.3571C16.5087 13.3753 19.864 11.7668 24.0015 11.7668C28.139 11.7668 31.4942 13.3753 31.4942 15.3571C31.4942 17.3389 28.139 18.9474 24.0015 18.9474Z" stroke="#FFBE06" stroke-width="2.24782" stroke-linecap="round" stroke-linejoin="round"/>
<path d="M4.52039 8.17456V23.9717C4.52039 25.9536 7.87563 27.562 12.0131 27.562C13.7005 27.562 15.256 27.2949 16.5087 26.8439M16.5087 26.8439V15.3551M16.5087 26.8439C16.5087 28.8258 19.864 30.4342 24.0015 30.4342C28.139 30.4342 31.4942 28.8258 31.4942 26.8439V15.3551M19.5058 12.4829V8.17456" stroke="#FFBE06" stroke-width="2.24782" stroke-linecap="round" stroke-linejoin="round"/>
<path d="M12.0131 11.767C7.87563 11.767 4.52039 10.1585 4.52039 8.17669C4.52039 6.19486 7.87563 4.58643 12.0131 4.58643C16.1506 4.58643 19.5058 6.19486 19.5058 8.17669C19.5058 10.1585 16.1506 11.767 12.0131 11.767Z" stroke="#FFBE06" stroke-width="2.24782" stroke-linecap="round" stroke-linejoin="round"/>
</svg>
