<svg xmlns="http://www.w3.org/2000/svg" width="93" height="94" viewBox="0 0 93 94" fill="none">
<path d="M105.253 47.3538C105.234 47.0842 105.191 46.817 105.123 46.5554L94.5603 18.4271C96.4827 17.1837 98.0636 15.4792 99.1592 13.4689C100.255 11.4586 100.83 9.20622 100.833 6.91675C100.833 5.70117 100.35 4.53538 99.4908 3.67584C98.6313 2.8163 97.4655 2.33341 96.2499 2.33341C95.0343 2.33341 93.8686 2.8163 93.009 3.67584C92.1495 4.53538 91.6666 5.70117 91.6666 6.91675C91.6662 7.93813 91.3248 8.93014 90.6965 9.73544C90.0683 10.5407 89.1891 11.1132 88.1985 11.362C87.2079 11.6108 86.1625 11.5217 85.2283 11.1089C84.2941 10.696 83.5244 9.98309 83.0415 9.08311C81.8654 6.99546 80.1456 5.26546 78.065 4.07699C75.9844 2.88852 73.6206 2.28598 71.2249 2.33341H59.5833V-2.24992C59.5833 -3.46549 59.1004 -4.63128 58.2408 -5.49083C57.3813 -6.35037 56.2155 -6.83325 54.9999 -6.83325C53.7843 -6.83325 52.6186 -6.35037 51.759 -5.49083C50.8995 -4.63128 50.4166 -3.46549 50.4166 -2.24992V2.33341H38.7749C36.3792 2.28598 34.0155 2.88852 31.9348 4.07699C29.8542 5.26546 28.1345 6.99546 26.9584 9.08311C26.4754 9.98309 25.7058 10.696 24.7715 11.1089C23.8373 11.5217 22.792 11.6108 21.8014 11.362C20.8107 11.1132 19.9316 10.5407 19.3033 9.73544C18.675 8.93014 18.3336 7.93813 18.3333 6.91675C18.3333 5.70117 17.8504 4.53538 16.9908 3.67584C16.1313 2.8163 14.9655 2.33341 13.7499 2.33341C12.5343 2.33341 11.3686 2.8163 10.509 3.67584C9.64947 4.53538 9.16659 5.70117 9.16659 6.91675C9.16959 9.20622 9.74507 11.4586 10.8407 13.4689C11.9363 15.4792 13.5172 17.1837 15.4396 18.4271L4.87659 46.5554C4.80878 46.817 4.76552 47.0842 4.74738 47.3538C4.66689 47.6189 4.61193 47.8912 4.58325 48.1667C4.58325 48.2093 4.59558 48.2484 4.59586 48.291C4.59723 48.3514 4.60961 48.407 4.61373 48.4672C4.68509 53.2743 6.64482 57.8605 10.0695 61.2347C13.4942 64.6089 18.1089 66.5003 22.9166 66.5003C27.7243 66.5003 32.339 64.6089 35.7637 61.2347C39.1884 57.8605 41.1481 53.2743 41.2194 48.4672C41.2233 48.407 41.2359 48.3514 41.2373 48.291C41.2376 48.2484 41.2499 48.2093 41.2499 48.1667C41.2213 47.8912 41.1664 47.6189 41.086 47.3538C41.0678 47.0842 41.0246 46.817 40.9568 46.5554L30.3813 18.3944C32.3235 17.1549 33.9218 15.4456 35.0284 13.4247C35.4284 12.8027 35.9854 12.2971 36.6432 11.9592C37.301 11.6213 38.0363 11.4629 38.7749 11.5001H50.4166V75.6667H36.6666C35.451 75.6667 34.2852 76.1496 33.4257 77.0092C32.5661 77.8687 32.0833 79.0345 32.0833 80.2501C32.0833 81.4657 32.5661 82.6314 33.4257 83.491C34.2852 84.3505 35.451 84.8334 36.6666 84.8334H73.3333C74.5488 84.8334 75.7146 84.3505 76.5742 83.491C77.4337 82.6314 77.9166 81.4657 77.9166 80.2501C77.9166 79.0345 77.4337 77.8687 76.5742 77.0092C75.7146 76.1496 74.5488 75.6667 73.3333 75.6667H59.5833V11.5001H71.2249C71.9635 11.4629 72.6988 11.6213 73.3566 11.9593C74.0143 12.2972 74.5713 12.8027 74.9712 13.4247C76.0778 15.4456 77.6761 17.1549 79.6184 18.3944L69.0433 46.5554C68.9754 46.817 68.9322 47.0842 68.9141 47.3538C68.8336 47.6189 68.7786 47.8912 68.7499 48.1667C68.7499 48.2093 68.7623 48.2484 68.7625 48.291C68.7639 48.3514 68.7763 48.407 68.7804 48.4672C68.8518 53.2743 70.8115 57.8605 74.2362 61.2347C77.6609 64.6089 82.2756 66.5003 87.0833 66.5003C91.8909 66.5003 96.5056 64.6089 99.9303 61.2347C103.355 57.8605 105.315 53.2743 105.386 48.4672C105.39 48.407 105.403 48.3514 105.404 48.291C105.404 48.2484 105.417 48.2093 105.417 48.1667C105.388 47.8912 105.333 47.6189 105.253 47.3538ZM22.9166 24.5879L30.0501 43.5834H15.7831L22.9166 24.5879ZM30.8121 52.7501C30.0032 54.1302 28.851 55.2777 27.4675 56.0808C26.084 56.8839 24.5162 57.3154 22.9166 57.3334C21.308 57.3328 19.7279 56.909 18.3349 56.1045C16.9419 55.3 15.7852 54.1431 14.9808 52.7501H30.8121ZM87.0833 24.5879L94.2168 43.5834H79.9498L87.0833 24.5879ZM87.0833 57.3334C85.4747 57.3328 83.8945 56.909 82.5016 56.1045C81.1086 55.3 79.9518 54.1431 79.1474 52.7501H94.9788C94.1699 54.1302 93.0177 55.2777 91.6342 56.0808C90.2507 56.8839 88.6829 57.3154 87.0833 57.3334Z" fill="url(#paint0_linear_219_807)" fill-opacity="0.49"/>
<defs>
<linearGradient id="paint0_linear_219_807" x1="54.9999" y1="-6.83325" x2="54.9999" y2="84.8334" gradientUnits="userSpaceOnUse">
<stop stop-color="#4263A6" stop-opacity="0.71"/>
<stop offset="1" stop-color="#E5E5E5" stop-opacity="0.71"/>
</linearGradient>
</defs>
</svg>