<svg width="39" height="39" viewBox="0 0 39 39" fill="none" xmlns="http://www.w3.org/2000/svg">
<path d="M19.5003 19.4997V10.1338M19.5003 19.4997L10.9774 24.2311M19.5003 19.4997L28.0233 24.2311M19.5003 10.1338C20.3615 10.1338 21.1873 9.80491 21.7962 9.21943C22.4051 8.63395 22.7472 7.83986 22.7472 7.01186C22.7472 6.18386 22.4051 5.38978 21.7962 4.8043C21.1873 4.21881 20.3615 3.88989 19.5003 3.88989C18.6392 3.88989 17.8134 4.21881 17.2045 4.8043C16.5956 5.38978 16.2535 6.18386 16.2535 7.01186C16.2535 7.83986 16.5956 8.63395 17.2045 9.21943C17.8134 9.80491 18.6392 10.1338 19.5003 10.1338ZM11.3832 13.2558C11.3832 14.0838 11.0411 14.8779 10.4322 15.4634C9.82334 16.0488 8.99749 16.3778 8.13637 16.3778C7.27526 16.3778 6.44941 16.0488 5.84051 15.4634C5.2316 14.8779 4.88953 14.0838 4.88953 13.2558C4.88953 12.4278 5.2316 11.6337 5.84051 11.0482C6.44941 10.4628 7.27526 10.1338 8.13637 10.1338C8.99749 10.1338 9.82334 10.4628 10.4322 11.0482C11.0411 11.6337 11.3832 12.4278 11.3832 13.2558ZM11.3832 25.7437C11.3832 26.5717 11.0411 27.3658 10.4322 27.9512C9.82334 28.5367 8.99749 28.8656 8.13637 28.8656C7.27526 28.8656 6.44941 28.5367 5.84051 27.9512C5.2316 27.3658 4.88953 26.5717 4.88953 25.7437C4.88953 24.9157 5.2316 24.1216 5.84051 23.5361C6.44941 22.9506 7.27526 22.6217 8.13637 22.6217C8.99749 22.6217 9.82334 22.9506 10.4322 23.5361C11.0411 24.1216 11.3832 24.9157 11.3832 25.7437ZM22.7472 31.9876C22.7472 32.8156 22.4051 33.6097 21.7962 34.1952C21.1873 34.7807 20.3615 35.1096 19.5003 35.1096C18.6392 35.1096 17.8134 34.7807 17.2045 34.1952C16.5956 33.6097 16.2535 32.8156 16.2535 31.9876C16.2535 31.1596 16.5956 30.3655 17.2045 29.7801C17.8134 29.1946 18.6392 28.8656 19.5003 28.8656C20.3615 28.8656 21.1873 29.1946 21.7962 29.7801C22.4051 30.3655 22.7472 31.1596 22.7472 31.9876ZM34.1112 25.7437C34.1112 26.5717 33.7691 27.3658 33.1602 27.9512C32.5513 28.5367 31.7254 28.8656 30.8643 28.8656C30.0032 28.8656 29.1773 28.5367 28.5684 27.9512C27.9595 27.3658 27.6175 26.5717 27.6175 25.7437C27.6175 24.9157 27.9595 24.1216 28.5684 23.5361C29.1773 22.9506 30.0032 22.6217 30.8643 22.6217C31.7254 22.6217 32.5513 22.9506 33.1602 23.5361C33.7691 24.1216 34.1112 24.9157 34.1112 25.7437ZM34.1112 13.2558C34.1112 14.0838 33.7691 14.8779 33.1602 15.4634C32.5513 16.0488 31.7254 16.3778 30.8643 16.3778C30.0032 16.3778 29.1773 16.0488 28.5684 15.4634C27.9595 14.8779 27.6175 14.0838 27.6175 13.2558C27.6175 12.4278 27.9595 11.6337 28.5684 11.0482C29.1773 10.4628 30.0032 10.1338 30.8643 10.1338C31.7254 10.1338 32.5513 10.4628 33.1602 11.0482C33.7691 11.6337 34.1112 12.4278 34.1112 13.2558Z" stroke="#FFBE06" stroke-width="2.62245" stroke-linecap="round" stroke-linejoin="round"/>
</svg>
