<svg width="14" height="14" viewBox="0 0 14 14" fill="none" xmlns="http://www.w3.org/2000/svg">
<path fill-rule="evenodd" clip-rule="evenodd" d="M6.99996 2.33268C4.42263 2.33268 2.33329 4.42202 2.33329 6.99935C2.33329 9.57669 4.42263 11.666 6.99996 11.666C9.5773 11.666 11.6666 9.57669 11.6666 6.99935C11.6666 4.42202 9.5773 2.33268 6.99996 2.33268ZM1.16663 6.99935C1.16663 3.77769 3.7783 1.16602 6.99996 1.16602C10.2216 1.16602 12.8333 3.77769 12.8333 6.99935C12.8333 10.221 10.2216 12.8327 6.99996 12.8327C3.7783 12.8327 1.16663 10.221 1.16663 6.99935Z" fill="#6C90D9" fill-opacity="0.56"/>
<path fill-rule="evenodd" clip-rule="evenodd" d="M6.49448 5.54177C6.33319 5.82063 5.97636 5.9159 5.69747 5.75461C5.4186 5.59329 5.3233 5.23645 5.48462 4.95758C5.78632 4.43603 6.35168 4.08301 7.00017 4.08301C7.96664 4.08301 8.75017 4.86651 8.75017 5.83301C8.75011 6.47333 8.35735 6.99617 7.87517 7.29134C7.48784 7.52847 7.72934 8.16634 6.99859 8.16634C6.67648 8.16634 6.41526 7.90518 6.41526 7.58301C6.41526 7.56253 6.41631 7.54229 6.41841 7.52234C6.43457 7.21387 6.57212 6.96281 6.72192 6.78028C6.88012 6.58755 7.08808 6.43017 7.24709 6.33561C8.13184 5.80967 7.05273 4.73366 6.49448 5.54177ZM6.99859 8.74967C6.67648 8.74967 6.41526 9.01083 6.41526 9.33301C6.41526 9.65518 6.67648 9.91634 6.99859 9.91634C7.32077 9.91634 7.58193 9.65518 7.58193 9.33301C7.58193 9.01083 7.32077 8.74967 6.99859 8.74967Z" fill="#6C90D9" fill-opacity="0.56"/>
</svg>
