<svg width="14" height="15" viewBox="0 0 14 15" fill="none" xmlns="http://www.w3.org/2000/svg">
<path fill-rule="evenodd" clip-rule="evenodd" d="M7.00033 3.32292C4.423 3.32292 2.33366 5.41225 2.33366 7.98958C2.33366 10.5669 4.423 12.6562 7.00033 12.6562C9.57767 12.6562 11.667 10.5669 11.667 7.98958C11.667 5.41225 9.57767 3.32292 7.00033 3.32292ZM1.16699 7.98958C1.16699 4.76792 3.77866 2.15625 7.00033 2.15625C10.222 2.15625 12.8337 4.76792 12.8337 7.98958C12.8337 11.2112 10.222 13.8229 7.00033 13.8229C3.77866 13.8229 1.16699 11.2112 1.16699 7.98958Z" fill="#6C90D9" fill-opacity="0.56"/>
<path fill-rule="evenodd" clip-rule="evenodd" d="M6.4946 6.53298C6.33331 6.81185 5.97648 6.90711 5.69759 6.74582C5.41872 6.5845 5.32342 6.22766 5.48475 5.94879C5.78645 5.42724 6.3518 5.07422 7.00029 5.07422C7.96676 5.07422 8.75029 5.85772 8.75029 6.82422C8.75023 7.46454 8.35747 7.98739 7.87529 8.28255C7.48796 8.51968 7.72946 9.15755 6.99872 9.15755C6.6766 9.15755 6.41538 8.89639 6.41538 8.57422C6.41538 8.55374 6.41643 8.5335 6.41853 8.51355C6.43469 8.20509 6.57224 7.95402 6.72204 7.77149C6.88024 7.57876 7.0882 7.42138 7.24722 7.32682C8.13196 6.80089 7.05285 5.72487 6.4946 6.53298ZM6.99872 9.74089C6.6766 9.74089 6.41538 10.002 6.41538 10.3242C6.41538 10.6464 6.6766 10.9076 6.99872 10.9076C7.32089 10.9076 7.58205 10.6464 7.58205 10.3242C7.58205 10.002 7.32089 9.74089 6.99872 9.74089Z" fill="#6C90D9" fill-opacity="0.56"/>
</svg>
