<svg width="18" height="18" viewBox="0 0 18 18" fill="none" xmlns="http://www.w3.org/2000/svg">
<path d="M9.32268 12.15C11.0433 12.15 12.4452 10.7357 12.4452 9C12.4452 7.26429 11.0433 5.85 9.32268 5.85C7.58937 5.85 6.20017 7.26429 6.20017 9C6.20017 10.7357 7.58937 12.15 9.32268 12.15ZM15.9501 9.87429L17.8363 11.3657C18.002 11.5071 18.053 11.7386 17.9383 11.9443L16.154 15.0557C16.1005 15.1485 16.0158 15.219 15.9153 15.2544C15.8148 15.2897 15.7051 15.2877 15.6059 15.2486L13.3883 14.3486C12.9295 14.7086 12.4197 15.0043 11.8844 15.2357L11.5403 17.6143C11.5148 17.8329 11.3236 18 11.107 18H7.53839C7.30898 18 7.13055 17.8329 7.09232 17.6143L6.76095 15.2357C6.21291 15.0043 5.71586 14.7086 5.25704 14.3486L3.02667 15.2486C2.8355 15.3257 2.59334 15.2486 2.49138 15.0557L0.707088 11.9443C0.652792 11.8515 0.633225 11.7421 0.651926 11.636C0.670628 11.5298 0.726363 11.434 0.809048 11.3657L2.6953 9.87429L2.63158 9L2.6953 8.11286L0.809048 6.63428C0.726802 6.56571 0.671393 6.46988 0.652716 6.36389C0.634039 6.25791 0.653311 6.14869 0.707088 6.05571L2.49138 2.94429C2.59334 2.73857 2.8355 2.66143 3.02667 2.73857L5.25704 3.65143C5.71586 3.29143 6.21291 2.98286 6.76095 2.76429L7.09232 0.372857C7.13055 0.167143 7.30898 0 7.53839 0H11.107C11.3236 0 11.5148 0.167143 11.5403 0.372857L11.8844 2.76429C12.4197 2.98286 12.9295 3.29143 13.3883 3.65143L15.6059 2.73857C15.8226 2.66143 16.0393 2.73857 16.154 2.94429L17.9383 6.05571C18.053 6.24857 18.002 6.49286 17.8363 6.63428L15.9501 8.11286L16.0138 9L15.9501 9.87429Z" fill="#4263A6"/>
</svg>
