<svg width="26" height="27" viewBox="0 0 26 27" fill="none" xmlns="http://www.w3.org/2000/svg">
<path d="M13 26.5C20.1797 26.5 26 20.6797 26 13.5C26 6.3203 20.1797 0.5 13 0.5C5.8203 0.5 0 6.3203 0 13.5C0 20.6797 5.8203 26.5 13 26.5Z" fill="#1DA2B4"/>
<path fill-rule="evenodd" clip-rule="evenodd" d="M9.62048 4.81449C9.84928 4.56489 10.1821 4.42969 10.5149 4.42969H12.7197C13.0005 4.42969 13.1461 4.76249 12.9485 4.96009L8.59088 9.60889H10.9933L13.4373 12.1985H8.59088L13.4373 17.3881H10.5045C10.1613 17.3881 9.83888 17.2425 9.61008 17.0033L4.69088 11.7409C4.25408 11.2729 4.25408 10.5449 4.69088 10.0769L9.61008 4.81449H9.62048Z" fill="white"/>
<path fill-rule="evenodd" clip-rule="evenodd" d="M16.3803 22.183C16.1515 22.4326 15.8187 22.5678 15.4859 22.5678H13.2811C13.0003 22.5678 12.8547 22.235 13.0523 22.0374L17.4099 17.3886H15.0075L12.5635 14.799H17.4099L12.5635 9.60938H15.4963C15.8395 9.60938 16.1619 9.75498 16.3907 9.99418L21.3099 15.2566C21.7467 15.7246 21.7467 16.4526 21.3099 16.9206L16.3907 22.183H16.3803Z" fill="white"/>
</svg>
