<svg width="51" height="48" viewBox="0 0 51 48" fill="none" xmlns="http://www.w3.org/2000/svg">
<g clip-path="url(#clip0_161_597)">
<path d="M49.8178 0.636475L27.9342 16.5536L32.0036 7.1732L49.8178 0.636475Z" fill="#E17726"/>
<path d="M1.23339 0.655273L18.9999 7.17437L22.864 16.6778L1.23339 0.655273ZM41.0112 34.4878L50.6835 34.6688L47.3031 45.957L35.5008 42.7628L41.0112 34.4878ZM9.98865 34.4878L15.4785 42.7628L3.69613 45.9572L0.336304 34.6688L9.98865 34.4878Z" fill="#E27625"/>
<path d="M22.3386 14.257L22.7338 26.8066L10.906 26.2776L14.2704 21.2882L14.313 21.2402L22.3386 14.257ZM28.5389 14.1169L36.6869 21.2406L36.7291 21.2884L40.0935 26.2778L28.2683 26.8066L28.5389 14.1169ZM15.8249 34.5241L22.2832 39.4707L14.781 43.0311L15.8249 34.5241ZM35.1762 34.5234L36.1984 43.0313L28.7172 39.4703L35.1762 34.5234Z" fill="#E27625"/>
<path d="M28.8824 39.0046L36.474 42.6182L29.4123 45.9172L29.4856 43.7368L28.8824 39.0046ZM22.1155 39.0062L21.536 43.7011L21.5836 45.9146L14.5054 42.6182L22.1155 39.0062Z" fill="#D5BFB2"/>
<path d="M19.9232 28.4446L21.9071 32.543L15.153 30.598L19.9232 28.4446ZM31.0765 28.445L35.8693 30.598L29.0931 32.5424L31.0765 28.445Z" fill="#233447"/>
<path d="M16.3411 34.4822L15.2494 43.3026L9.39771 34.6751L16.3411 34.4822ZM34.6592 34.4824L41.6028 34.6751L35.7292 43.303L34.6592 34.4824ZM40.2645 25.7788L35.2113 30.8413L31.3152 29.0911L29.4499 32.9459L28.2271 26.3172L40.2645 25.7788ZM10.7329 25.7788L22.7727 26.3172L21.5497 32.9459L19.684 29.0917L15.8086 30.8415L10.7329 25.7788Z" fill="#CC6228"/>
<path d="M10.3925 24.7399L16.1096 30.4428L16.3077 36.0728L10.3925 24.7399ZM40.6133 24.7297L34.6874 36.0828L34.9105 30.4428L40.6133 24.7297ZM22.4932 25.0873L22.7233 26.511L23.2919 30.0578L22.9263 40.951L21.1981 32.2002L21.1975 32.1097L22.4932 25.0873ZM28.5038 25.0675L29.8029 32.1097L29.8023 32.2002L28.0697 40.9729L28.0012 38.7786L27.7309 29.9931L28.5038 25.0675Z" fill="#E27525"/>
<path d="M35.4187 30.2163L35.2252 35.1078L29.1941 39.727L27.9749 38.8802L29.3415 31.9604L35.4187 30.2163ZM15.6022 30.2163L21.6582 31.9604L23.0249 38.8802L21.8056 39.727L15.7743 35.1074L15.6022 30.2163Z" fill="#F5841F"/>
<path d="M13.3512 41.5378L21.0673 45.1318L21.0347 43.597L21.6803 43.0399H29.3172L29.9862 43.5951L29.9368 45.1286L37.6041 41.5469L33.8731 44.5776L29.3618 47.6234H21.6184L17.1101 44.565L13.3512 41.5378Z" fill="#C0AC9D"/>
<path d="M28.3297 38.5261L29.4207 39.2838L30.06 44.2979L29.1348 43.5301H21.8681L20.9604 44.3134L21.5788 39.2842L22.6701 38.5261H28.3297Z" fill="#161616"/>
<path d="M48.3731 1.07715L51 8.82373L49.3594 16.6565L50.5277 17.5422L48.9468 18.7278L50.135 19.6298L48.5618 21.038L49.5276 21.7256L46.9644 24.6682L36.4517 21.6592L36.3606 21.6113L28.7849 15.3293L48.3731 1.07715ZM2.6269 1.07715L22.2153 15.3293L14.6394 21.6113L14.5483 21.6592L4.03557 24.6682L1.47243 21.7256L2.43744 21.0386L0.865207 19.6298L2.05096 18.7288L0.446449 17.5399L1.6587 16.6535L0 8.82412L2.6269 1.07715Z" fill="#763E1A"/>
<path d="M35.9375 21.0011L47.0764 24.1891L50.6952 35.153H41.1479L34.5697 35.2345L39.3537 26.0679L35.9375 21.0011ZM15.0626 21.0011L11.6458 26.0679L16.4304 35.2345L9.85518 35.153H0.324951L3.92344 24.1893L15.0626 21.0011ZM32.5492 7.12085L29.4336 15.3927L28.7724 26.5669L28.5194 30.0694L28.4993 39.0166H22.5006L22.4811 30.0862L22.2273 26.564L21.5659 15.3927L18.4507 7.12085H32.5492Z" fill="#F5841F"/>
</g>
<defs>
<clipPath id="clip0_161_597">
<rect width="51" height="47" fill="white" transform="translate(0 0.636475)"/>
</clipPath>
</defs>
</svg>
