<svg width="45" height="52" viewBox="0 0 45 52" fill="none" xmlns="http://www.w3.org/2000/svg">
<path d="M22.2756 48.6333L22.2734 48.6334C21.5005 48.6683 20.7699 48.4381 20.3972 48.3125C19.9068 48.1473 19.371 47.9219 18.8251 47.6636C17.7271 47.144 16.4271 46.4143 15.1033 45.5394C12.5433 43.8475 9.46999 41.3344 7.77292 38.3945L22.2756 48.6333ZM22.2756 48.6333C22.9432 48.6027 23.585 48.3826 23.9556 48.2458C24.4209 48.074 24.9367 47.8467 25.4715 47.5853C26.5454 47.0602 27.825 46.3341 29.1367 45.4663C31.6761 43.7863 34.7263 41.3202 36.4689 38.4522C38.2021 35.5996 39.3308 30.8591 40.0614 26.2241C40.8155 21.4399 41.222 16.2246 41.2748 12.0534C41.2849 11.2512 40.9733 10.4783 40.4096 9.90748M22.2756 48.6333L40.4096 9.90748M40.4096 9.90748C39.8458 9.33663 39.0769 9.01537 38.2746 9.01547M40.4096 9.90748L38.2746 9.01547M38.2746 9.01547C30.8334 9.0164 26.4384 6.69349 24.2589 4.51478C23.0873 3.34356 21.1881 3.34373 20.0167 4.51515M38.2746 9.01547L20.0167 4.51515M20.0167 4.51515C17.8353 6.69653 13.4525 9.01647 6 9.01647C4.34315 9.01647 3 10.3596 3 12.0165M20.0167 4.51515L3 12.0165M3 12.0165C3 16.2262 3.43569 21.4427 4.21564 26.2158M3 12.0165L4.21564 26.2158M4.21564 26.2158C4.9752 30.864 6.13023 35.5491 7.77278 38.3942L4.21564 26.2158Z" stroke="#3375BB" stroke-width="6" stroke-linecap="round" stroke-linejoin="round"/>
</svg>
