<svg width="26" height="31" viewBox="0 0 26 31" fill="none" xmlns="http://www.w3.org/2000/svg">
<g clip-path="url(#clip0_840_8923)">
<path d="M10.1964 7.32737C9.87194 7.28093 9.85649 7.26546 10.011 7.24998C10.3045 7.20354 10.9842 7.26546 11.4631 7.37381C12.5754 7.63697 13.5796 8.31809 14.6456 9.51004L14.9236 9.83511L15.3253 9.7732C17.0401 9.49456 18.8012 9.71128 20.2688 10.3924C20.6705 10.5781 21.3039 10.9497 21.3811 11.0425C21.412 11.0735 21.4584 11.2747 21.4893 11.476C21.5974 12.2035 21.5511 12.7453 21.3194 13.1633C21.1958 13.3955 21.1958 13.4574 21.273 13.6586C21.3348 13.8134 21.5202 13.9218 21.6901 13.9218C22.0609 13.9218 22.4471 13.3336 22.6325 12.5131L22.7097 12.1881L22.8488 12.3429C23.6366 13.2252 24.2546 14.4481 24.3473 15.315L24.3782 15.5472L24.2391 15.346C24.0074 14.9899 23.7911 14.7577 23.4976 14.5565C22.9724 14.2004 22.4162 14.0921 20.9486 14.0147C19.62 13.9373 18.863 13.8289 18.1215 13.5812C16.8547 13.1633 16.2059 12.6215 14.7074 10.6246C14.0431 9.74224 13.626 9.26236 13.2088 8.85988C12.2974 7.97753 11.3859 7.51313 10.1964 7.32737Z" fill="#FF007A"/>
<path d="M21.7056 9.29365C21.7365 8.70541 21.8137 8.31841 21.9837 7.96238C22.0455 7.82306 22.1073 7.69922 22.1227 7.69922C22.1382 7.69922 22.1073 7.80758 22.0609 7.93142C21.9373 8.27197 21.9219 8.75185 21.9991 9.29365C22.1073 9.99024 22.1536 10.0831 22.8951 10.8416C23.235 11.1977 23.6367 11.6466 23.7912 11.8323L24.0538 12.1729L23.7912 11.9252C23.4667 11.6156 22.7252 11.0274 22.5553 10.95C22.4471 10.8881 22.4317 10.8881 22.3544 10.9655C22.2926 11.0274 22.2772 11.1203 22.2772 11.5692C22.2618 12.2658 22.1691 12.6992 21.9373 13.1481C21.8137 13.3803 21.7983 13.3339 21.9064 13.0707C21.9837 12.8695 21.9991 12.7766 21.9991 12.111C21.9991 10.7642 21.8446 10.4392 20.9023 9.89736C20.6705 9.75804 20.2689 9.5568 20.0372 9.44844C19.79 9.34009 19.6046 9.24721 19.62 9.24721C19.6509 9.21625 20.5624 9.4794 20.9177 9.6342C21.4584 9.85092 21.5511 9.8664 21.6129 9.85092C21.6593 9.80448 21.6902 9.68064 21.7056 9.29365Z" fill="#FF007A"/>
<path d="M10.8299 11.5986C10.181 10.7007 9.76392 9.30754 9.85661 8.27039L9.8875 7.94531L10.042 7.97627C10.3201 8.02271 10.799 8.20847 11.0307 8.34779C11.6486 8.71931 11.9267 9.23014 12.1893 10.4995C12.2666 10.871 12.3747 11.3044 12.4211 11.4438C12.4983 11.676 12.7918 12.2178 13.039 12.5583C13.209 12.806 13.1008 12.9298 12.7146 12.8989C12.1276 12.837 11.3397 12.2952 10.8299 11.5986Z" fill="#FF007A"/>
<path d="M20.9176 18.3319C17.8587 17.0935 16.7773 16.0254 16.7773 14.2143C16.7773 13.9511 16.7928 13.7344 16.7928 13.7344C16.8082 13.7344 16.9164 13.8273 17.0554 13.9356C17.6734 14.431 18.3685 14.6477 20.2996 14.9263C21.4274 15.0966 22.0762 15.2204 22.6633 15.4217C24.5325 16.0409 25.6912 17.3102 25.9693 19.0285C26.0465 19.5238 26.0002 20.4681 25.8766 20.9635C25.7684 21.3505 25.4595 22.0625 25.3822 22.078C25.3668 22.078 25.3359 22.0006 25.3359 21.8768C25.305 21.2266 24.9806 20.6074 24.4399 20.1276C23.791 19.5703 22.9568 19.1523 20.9176 18.3319Z" fill="#FF007A"/>
<path d="M18.7546 18.8433C18.7237 18.6111 18.6464 18.317 18.6001 18.1931L18.5228 17.9609L18.6619 18.1312C18.8627 18.3634 19.0172 18.6421 19.1562 19.029C19.2644 19.3232 19.2644 19.416 19.2644 19.8959C19.2644 20.3603 19.2489 20.4687 19.1562 20.7318C19.0018 21.1498 18.8164 21.4439 18.5074 21.769C17.9513 22.3417 17.2252 22.6513 16.1901 22.7907C16.0047 22.8061 15.4795 22.8526 15.016 22.8835C13.8574 22.9455 13.0849 23.0693 12.3898 23.317C12.2971 23.3479 12.2044 23.3789 12.1889 23.3634C12.158 23.3325 12.6369 23.0538 13.0231 22.8681C13.5638 22.6049 14.12 22.4656 15.3404 22.2489C15.9429 22.156 16.5609 22.0321 16.7154 21.9702C18.2448 21.4903 19.0018 20.2984 18.7546 18.8433Z" fill="#FF007A"/>
<path d="M20.1602 21.3344C19.7585 20.4521 19.6658 19.6161 19.8821 18.8267C19.913 18.7493 19.9439 18.6719 19.9748 18.6719C20.0057 18.6719 20.0984 18.7183 20.1911 18.7802C20.3765 18.9041 20.7627 19.1208 21.7514 19.6626C23.0027 20.3437 23.7134 20.87 24.2077 21.4737C24.6403 22 24.9029 22.6038 25.0265 23.3468C25.1037 23.7648 25.0574 24.7709 24.9492 25.1889C24.6094 26.5047 23.8369 27.5573 22.7092 28.161C22.5393 28.2539 22.4002 28.3158 22.3848 28.3158C22.3693 28.3158 22.4311 28.161 22.5238 27.9753C22.8946 27.1858 22.9409 26.4273 22.6629 25.5759C22.4929 25.0496 22.1376 24.4149 21.427 23.3468C20.5773 22.1084 20.3765 21.7833 20.1602 21.3344Z" fill="#FF007A"/>
<path d="M8.65157 26.0708C9.79477 25.1111 11.2006 24.43 12.4983 24.2132C13.0544 24.1204 13.9813 24.1513 14.4911 24.2906C15.3099 24.5074 16.0514 24.9718 16.4377 25.5445C16.8084 26.1018 16.9784 26.5817 17.1483 27.6498C17.2101 28.0677 17.2873 28.5012 17.3028 28.5941C17.4264 29.1513 17.6736 29.5848 17.9825 29.817C18.4614 30.173 19.2957 30.1885 20.1144 29.8789C20.2535 29.8324 20.3771 29.786 20.3771 29.8015C20.408 29.8324 19.9908 30.1111 19.7128 30.2504C19.3266 30.4516 19.0176 30.5136 18.6005 30.5136C17.8589 30.5136 17.2255 30.1266 16.7157 29.3526C16.6076 29.1978 16.3913 28.7489 16.2059 28.3309C15.6652 27.077 15.3872 26.7055 14.7538 26.2876C14.1976 25.9315 13.487 25.8541 12.9463 26.1173C12.2356 26.4578 12.0503 27.3711 12.5446 27.9284C12.7454 28.1606 13.1162 28.3464 13.4252 28.3928C13.9968 28.4702 14.4911 28.0213 14.4911 27.4485C14.4911 27.077 14.3521 26.8603 13.9813 26.69C13.487 26.4733 12.9463 26.721 12.9617 27.2009C12.9617 27.4021 13.0544 27.5259 13.2553 27.6188C13.3788 27.6807 13.3788 27.6807 13.2861 27.6653C12.8381 27.5724 12.73 27.0151 13.0853 26.6591C13.5179 26.2256 14.4293 26.4114 14.7383 27.0151C14.8619 27.2628 14.8774 27.7581 14.7692 28.0677C14.5066 28.7489 13.7651 29.1049 13.0081 28.9037C12.4983 28.7643 12.282 28.625 11.664 27.9903C10.5826 26.8758 10.1655 26.6591 8.62067 26.4269L8.32715 26.3804L8.65157 26.0708Z" fill="#FF007A"/>
<path fill-rule="evenodd" clip-rule="evenodd" d="M0.524963 1.16563C4.12449 5.54644 9.67054 12.3576 9.94861 12.7291C10.1803 13.0387 10.0876 13.3328 9.70143 13.5495C9.48515 13.6734 9.03714 13.7972 8.82086 13.7972C8.57369 13.7972 8.28016 13.6734 8.07933 13.4721C7.94029 13.3328 7.3378 12.4505 5.97832 10.3297C4.94326 8.70433 4.06269 7.35759 4.04725 7.34211C3.98545 7.31115 3.98545 7.31115 5.87018 10.6858C7.05972 12.8065 7.44594 13.565 7.44594 13.6579C7.44594 13.8591 7.38414 13.9675 7.13697 14.2461C6.71985 14.7105 6.53447 15.2368 6.39543 16.3359C6.24095 17.5588 5.82383 18.4257 4.63429 19.8963C3.9391 20.7632 3.83096 20.918 3.66103 21.274C3.44475 21.7074 3.38296 21.9551 3.35206 22.5124C3.32116 23.1006 3.38296 23.4721 3.55289 24.0294C3.70738 24.5248 3.87731 24.8498 4.29442 25.4845C4.64974 26.0418 4.86602 26.4598 4.86602 26.6145C4.86602 26.7384 4.89692 26.7384 5.45307 26.6145C6.78165 26.305 7.8785 25.7786 8.48099 25.1285C8.85176 24.726 8.94445 24.5093 8.94445 23.952C8.94445 23.596 8.929 23.5186 8.83631 23.3019C8.68183 22.9613 8.3883 22.6827 7.75491 22.2492C6.92069 21.6765 6.56537 21.2121 6.47268 20.5929C6.39543 20.0666 6.48812 19.7105 6.95158 18.7353C7.43049 17.7291 7.55408 17.3111 7.63132 16.2895C7.67767 15.6393 7.75491 15.3762 7.94029 15.1749C8.14113 14.9582 8.31106 14.8808 8.78997 14.8189C9.57785 14.7105 10.0876 14.5093 10.4893 14.1223C10.8446 13.7972 10.9991 13.4721 11.0146 12.9923L11.03 12.6362L10.8292 12.4195C10.1031 11.5836 0.0460564 0.5 -0.000289401 0.5C-0.015738 0.5 0.23144 0.794118 0.524963 1.16563ZM5.26768 23.178C5.43762 22.8839 5.34493 22.5124 5.06685 22.3266C4.80423 22.1563 4.40256 22.2337 4.40256 22.4659C4.40256 22.5279 4.43346 22.5898 4.52615 22.6207C4.66519 22.6981 4.68064 22.7755 4.5725 22.9458C4.46436 23.1161 4.46436 23.2709 4.60339 23.3793C4.81967 23.5495 5.1132 23.4567 5.26768 23.178Z" fill="#FF007A"/>
<path fill-rule="evenodd" clip-rule="evenodd" d="M11.5249 15.0339C11.1541 15.1423 10.7988 15.5448 10.6907 15.9472C10.6289 16.1949 10.6598 16.6438 10.7679 16.7832C10.9379 16.9999 11.0923 17.0618 11.5249 17.0618C12.3746 17.0618 13.1007 16.6903 13.1779 16.2414C13.2551 15.8698 12.9307 15.359 12.4827 15.1268C12.251 15.003 11.7721 14.9565 11.5249 15.0339ZM12.5136 15.8079C12.6372 15.6222 12.5909 15.4209 12.3591 15.2816C11.942 15.0185 11.3086 15.2352 11.3086 15.6376C11.3086 15.8389 11.633 16.0556 11.942 16.0556C12.1428 16.0556 12.4209 15.9318 12.5136 15.8079Z" fill="#FF007A"/>
</g>
<defs>
<clipPath id="clip0_840_8923">
<rect width="26" height="30" fill="white" transform="translate(0 0.5)"/>
</clipPath>
</defs>
</svg>
