<svg width="58" height="41" viewBox="0 0 58 41" fill="none" xmlns="http://www.w3.org/2000/svg">
<path d="M11.8807 8.4343C21.3364 -1.96182 36.6636 -1.96182 46.1315 8.4343L47.2691 9.68403C47.7462 10.2059 47.7462 11.0436 47.2691 11.5655L43.3792 15.8503C43.1468 16.1112 42.7553 16.1112 42.5229 15.8503L40.9572 14.1336C34.3639 6.88244 23.6605 6.88244 17.0673 14.1336L15.3914 15.9739C15.159 16.2348 14.7676 16.2348 14.5352 15.9739L10.633 11.6891C10.156 11.1672 10.156 10.3295 10.633 9.80763L11.8807 8.4343ZM54.1804 17.2786L57.6422 21.0827C58.1193 21.6046 58.1193 22.4423 57.6422 22.9642L42.0214 40.1445C41.5443 40.6664 40.7859 40.6664 40.3089 40.1445L29.2141 27.9494C29.0917 27.8258 28.9083 27.8258 28.7859 27.9494L17.7034 40.1445C17.2263 40.6664 16.4679 40.6664 15.9908 40.1445L0.357798 22.9779C-0.119266 22.456 -0.119266 21.6183 0.357798 21.0964L3.81957 17.2923C4.29664 16.7704 5.05505 16.7704 5.53211 17.2923L16.6269 29.4875C16.7492 29.6111 16.9327 29.6111 17.055 29.4875L28.1376 17.2923C28.6147 16.7704 29.3731 16.7704 29.8502 17.2923L40.945 29.4875C41.0673 29.6111 41.2508 29.6111 41.3731 29.4875L52.4679 17.2923C52.9327 16.7567 53.7034 16.7567 54.1804 17.2786Z" fill="#3A99FB"/>
</svg>
