<svg width="19" height="18" viewBox="0 0 19 18" fill="none" xmlns="http://www.w3.org/2000/svg">
<path d="M9.52756 5.03092C8.74289 5.03092 7.97585 5.2636 7.32342 5.69953C6.67099 6.13547 6.16249 6.75509 5.86221 7.48002C5.56193 8.20496 5.48336 9.00266 5.63644 9.77225C5.78952 10.5418 6.16738 11.2488 6.72222 11.8036C7.27706 12.3584 7.98398 12.7363 8.75357 12.8894C9.52316 13.0425 10.3209 12.9639 11.0458 12.6636C11.7707 12.3633 12.3903 11.8548 12.8263 11.2024C13.2622 10.55 13.4949 9.78293 13.4949 8.99826C13.4938 7.94639 13.0755 6.93792 12.3317 6.19413C11.5879 5.45035 10.5794 5.03201 9.52756 5.03092ZM9.52756 11.6432C9.00445 11.6432 8.49308 11.488 8.05813 11.1974C7.62318 10.9068 7.28418 10.4937 7.08399 10.0104C6.88381 9.52713 6.83143 8.99533 6.93348 8.48227C7.03554 7.96921 7.28744 7.49793 7.65733 7.12804C8.02723 6.75814 8.49851 6.50624 9.01157 6.40418C9.52462 6.30213 10.0564 6.35451 10.5397 6.55469C11.023 6.75488 11.4361 7.09388 11.7267 7.52884C12.0173 7.96379 12.1725 8.47515 12.1725 8.99826C12.1725 9.69973 11.8938 10.3725 11.3978 10.8685C10.9018 11.3645 10.229 11.6432 9.52756 11.6432ZM13.4949 0.402344H5.56021C4.33304 0.403656 3.15651 0.89173 2.28877 1.75947C1.42103 2.62721 0.932953 3.80374 0.931641 5.03092V12.9656C0.932953 14.1928 1.42103 15.3693 2.28877 16.2371C3.15651 17.1048 4.33304 17.5929 5.56021 17.5942H13.4949C14.7221 17.5929 15.8986 17.1048 16.7664 16.2371C17.6341 15.3693 18.1222 14.1928 18.1235 12.9656V5.03092C18.1222 3.80374 17.6341 2.62721 16.7664 1.75947C15.8986 0.89173 14.7221 0.403656 13.4949 0.402344ZM16.801 12.9656C16.801 13.8424 16.4527 14.6834 15.8327 15.3034C15.2127 15.9234 14.3717 16.2717 13.4949 16.2717H5.56021C4.68337 16.2717 3.84245 15.9234 3.22243 15.3034C2.60241 14.6834 2.25409 13.8424 2.25409 12.9656V5.03092C2.25409 4.15408 2.60241 3.31315 3.22243 2.69313C3.84245 2.07312 4.68337 1.72479 5.56021 1.72479H13.4949C14.3717 1.72479 15.2127 2.07312 15.8327 2.69313C16.4527 3.31315 16.801 4.15408 16.801 5.03092V12.9656ZM14.8174 4.7003C14.8174 4.89647 14.7592 5.08823 14.6502 5.25134C14.5412 5.41444 14.3863 5.54157 14.2051 5.61664C14.0238 5.69171 13.8244 5.71135 13.632 5.67308C13.4396 5.63481 13.2629 5.54035 13.1242 5.40164C12.9855 5.26293 12.891 5.0862 12.8527 4.8938C12.8145 4.7014 12.8341 4.50198 12.9092 4.32074C12.9843 4.13951 13.1114 3.98461 13.2745 3.87562C13.4376 3.76664 13.6294 3.70847 13.8255 3.70847C14.0886 3.70847 14.3408 3.81296 14.5269 3.99897C14.7129 4.18497 14.8174 4.43725 14.8174 4.7003Z" fill="#6C90D9"/>
</svg>
