<svg width="18" height="18" viewBox="0 0 18 18" fill="none" xmlns="http://www.w3.org/2000/svg">
<path d="M16.0407 0.183594C16.5603 0.183594 17.0586 0.390007 17.426 0.757425C17.7934 1.12484 17.9998 1.62317 17.9998 2.14278V15.8571C17.9998 16.3767 17.7934 16.875 17.426 17.2424C17.0586 17.6098 16.5603 17.8162 16.0407 17.8162H2.32637C1.80676 17.8162 1.30844 17.6098 0.941019 17.2424C0.573601 16.875 0.367188 16.3767 0.367188 15.8571V2.14278C0.367188 1.62317 0.573601 1.12484 0.941019 0.757425C1.30844 0.390007 1.80676 0.183594 2.32637 0.183594H16.0407ZM15.5509 15.3673V10.1754C15.5509 9.32847 15.2144 8.5162 14.6155 7.91731C14.0166 7.31841 13.2044 6.98196 12.3574 6.98196C11.5247 6.98196 10.5549 7.49135 10.0847 8.25543V7.16808H7.35168V15.3673H10.0847V10.5379C10.0847 9.78359 10.6921 9.16645 11.4464 9.16645C11.8101 9.16645 12.1589 9.31094 12.4161 9.56813C12.6733 9.82533 12.8178 10.1742 12.8178 10.5379V15.3673H15.5509ZM4.168 5.63012C4.60447 5.63012 5.02307 5.45674 5.3317 5.14811C5.64033 4.83947 5.81372 4.42088 5.81372 3.98441C5.81372 3.07339 5.07902 2.3289 4.168 2.3289C3.72894 2.3289 3.30785 2.50332 2.99738 2.81379C2.68691 3.12426 2.51249 3.54534 2.51249 3.98441C2.51249 4.89543 3.25698 5.63012 4.168 5.63012ZM5.52964 15.3673V7.16808H2.81617V15.3673H5.52964Z" fill="#6C90D9"/>
</svg>
