<svg width="203" height="28" viewBox="0 0 203 28" fill="none" xmlns="http://www.w3.org/2000/svg">
<g clip-path="url(#clip0_744_6808)">
<path d="M0.234375 25.4669H8.0713V17.5547H0.234375V25.4669Z" fill="#FFBE06"/>
<path d="M16.7643 0H0.234375V7.9123H8.0713V17.5531H16.7643C21.5667 17.5531 25.4608 13.6216 25.4608 8.77658C25.4608 3.92804 21.5667 0 16.7643 0Z" fill="#FFBE06"/>
<path d="M34.4287 23.0426V2.42578H48.1224C49.6502 2.42578 50.9482 2.73146 52.0131 3.33928C53.0814 3.9471 53.8992 4.79735 54.4699 5.88302C55.0406 6.97218 55.326 8.24405 55.326 9.69862C55.326 11.1356 55.0372 12.4004 54.4525 13.4966C53.8714 14.5963 53.0327 15.4536 51.933 16.0755C50.8368 16.6938 49.5005 17.003 47.9276 17.003H38.9805V23.0426H34.4287ZM38.9805 13.1242H47.1863C48.3034 13.1242 49.1734 12.8185 49.7859 12.2107C50.4018 11.6028 50.7081 10.7632 50.7081 9.69862C50.7081 8.98188 50.5654 8.37404 50.287 7.87162C50.0051 7.37272 49.6154 6.98621 49.1073 6.71568C48.6027 6.44516 47.9624 6.30812 47.1863 6.30812H38.9805V13.1242Z" fill="white"/>
<path d="M58.458 23.0426V5.85485H61.9136L62.2373 8.72533H62.4635C62.7001 8.15967 63.0063 7.62562 63.3857 7.12669C63.7615 6.62779 64.2452 6.22376 64.8368 5.92161C65.4284 5.61594 66.114 5.46484 66.89 5.46484C67.2554 5.46484 67.6034 5.49647 67.9375 5.56327C68.2716 5.6265 68.5569 5.70375 68.797 5.79171V9.63894H67.0849C66.3088 9.63894 65.6442 9.75849 65.0978 9.99728C64.548 10.2362 64.0886 10.5805 63.7232 11.0232C63.3578 11.4694 63.0899 11.9859 62.9159 12.5726C62.7453 13.1594 62.6583 13.8129 62.6583 14.5296V23.0427L58.458 23.0426Z" fill="white"/>
<path d="M79.6475 23.4326C77.6465 23.4326 75.9378 23.1023 74.5284 22.4383C73.119 21.7742 72.0507 20.7799 71.3303 19.4554C70.61 18.1273 70.248 16.4549 70.248 14.4311C70.248 12.4109 70.61 10.735 71.3303 9.41046C72.0507 8.08238 73.119 7.09509 74.5284 6.4416C75.9378 5.79161 77.6465 5.46484 79.6475 5.46484C81.6728 5.46484 83.385 5.79161 84.7839 6.4416C86.1829 7.09509 87.2512 8.08238 87.982 9.41046C88.7128 10.735 89.0782 12.4109 89.0782 14.4311C89.0782 16.4549 88.7128 18.1273 87.982 19.4554C87.2512 20.7799 86.1829 21.7742 84.7839 22.4383C83.385 23.1023 81.6728 23.4326 79.6475 23.4326ZM79.6475 20.0421C80.768 20.0421 81.7041 19.842 82.4593 19.4378C83.211 19.0373 83.7782 18.44 84.154 17.646C84.5299 16.8519 84.7213 15.8787 84.7213 14.7263V14.1711C84.7213 12.9977 84.5299 12.0139 84.154 11.2199C83.7782 10.4258 83.211 9.83207 82.4593 9.44209C81.7041 9.0521 80.768 8.85534 79.6475 8.85534C78.5269 8.85534 77.5908 9.05218 76.8391 9.44209C76.084 9.83207 75.5202 10.4258 75.1409 11.2199C74.7651 12.0139 74.5771 12.9977 74.5771 14.1711V14.7263C74.5771 15.8787 74.7651 16.8519 75.1409 17.646C75.5202 18.44 76.084 19.0373 76.8391 19.4378C77.5908 19.8419 78.5269 20.0421 79.6475 20.0421Z" fill="white"/>
<path d="M92.6973 27.4203V5.85485H96.1216L96.4765 8.36695H96.734C97.4022 7.34453 98.2478 6.60671 99.271 6.14998C100.294 5.69324 101.429 5.46484 102.678 5.46484C104.251 5.46484 105.611 5.78456 106.763 6.42752C107.915 7.06698 108.81 8.05075 109.446 9.37883C110.08 10.7034 110.4 12.4004 110.4 14.4663C110.4 16.4865 110.08 18.166 109.446 19.5046C108.81 20.8397 107.933 21.8304 106.812 22.4699C105.692 23.1129 104.4 23.4326 102.935 23.4326C102.097 23.4326 101.31 23.3413 100.579 23.155C99.8486 22.9722 99.1909 22.6948 98.6098 22.3223C98.0286 21.9569 97.531 21.4967 97.1238 20.9556H96.8976V27.4203H92.6973ZM101.516 19.8137C102.549 19.8137 103.405 19.624 104.084 19.241C104.762 18.8616 105.267 18.2924 105.601 17.53C105.935 16.7711 106.102 15.8225 106.102 14.6947V14.2379C106.102 13.0855 105.935 12.1263 105.601 11.3674C105.267 10.605 104.755 10.0358 104.07 9.65287C103.377 9.27344 102.518 9.08371 101.484 9.08371C100.492 9.08371 99.6538 9.28409 98.9647 9.688C98.2757 10.0885 97.7572 10.6788 97.4126 11.4482C97.0681 12.2212 96.8976 13.1593 96.8976 14.2695V14.5963C96.8976 15.4219 96.995 16.1598 97.1864 16.8133C97.3813 17.4668 97.6771 18.0149 98.0773 18.4611C98.474 18.9073 98.9577 19.241 99.5285 19.4694C100.099 19.6979 100.76 19.8137 101.516 19.8137Z" fill="white"/>
<path d="M122.48 23.4326C120.5 23.4326 118.826 23.1058 117.458 22.4559C116.091 21.8023 115.057 20.808 114.358 19.4694C113.658 18.1343 113.307 16.4549 113.307 14.4311C113.307 12.4109 113.658 10.735 114.358 9.41046C115.057 8.08238 116.091 7.09509 117.458 6.4416C118.826 5.79161 120.5 5.46484 122.48 5.46484C123.729 5.46484 124.871 5.60893 125.904 5.90407C126.938 6.19918 127.836 6.63834 128.601 7.22508C129.367 7.81182 129.951 8.5356 130.362 9.39288C130.769 10.2537 130.975 11.2585 130.975 12.4109H126.712C126.712 11.6274 126.534 10.9704 126.179 10.4364C125.824 9.90584 125.323 9.50181 124.676 9.23127C124.032 8.96073 123.287 8.82371 122.449 8.82371C121.394 8.82371 120.51 9.02386 119.8 9.4245C119.087 9.82854 118.551 10.4258 118.186 11.2199C117.817 12.0139 117.636 12.9977 117.636 14.1711V14.7263C117.636 15.8787 117.817 16.8554 118.186 17.66C118.551 18.4646 119.104 19.0689 119.849 19.4694C120.59 19.8735 121.512 20.0737 122.609 20.0737C123.426 20.0737 124.161 19.9333 124.808 19.6486C125.452 19.3675 125.963 18.953 126.339 18.4119C126.715 17.8673 126.906 17.2138 126.906 16.4549H130.975C130.975 17.5862 130.766 18.584 130.345 19.4554C129.924 20.3232 129.339 21.0505 128.584 21.6407C127.832 22.2275 126.938 22.6737 125.904 22.9758C124.871 23.2815 123.729 23.4326 122.48 23.4326Z" fill="white"/>
<path d="M134.594 23.0403V2.4375H138.791V8.0379H139.017C139.514 7.45117 140.071 6.96633 140.698 6.58687C141.321 6.20744 141.996 5.92281 142.716 5.74013C143.436 5.55401 144.188 5.46256 144.961 5.46256C146.297 5.46256 147.438 5.68389 148.385 6.13014C149.335 6.57635 150.059 7.27199 150.567 8.2171C151.071 9.16223 151.326 10.3955 151.326 11.9203V23.0403H147.125V12.6687C147.125 11.9941 147.038 11.4284 146.868 10.9751C146.694 10.5149 146.447 10.153 146.123 9.87898C145.803 9.60845 145.41 9.41517 144.947 9.2922C144.484 9.17619 143.969 9.11297 143.412 9.11297C142.591 9.11297 141.832 9.29911 141.133 9.66809C140.433 10.0405 139.869 10.55 139.438 11.2C139.006 11.8534 138.791 12.6159 138.791 13.4837V23.0402L134.594 23.0403Z" fill="white"/>
<path d="M160.981 23.4326C160.251 23.4326 159.513 23.3624 158.768 23.2217C158.027 23.0812 157.348 22.8282 156.736 22.4698C156.12 22.1114 155.629 21.6126 155.264 20.9696C154.898 20.3301 154.714 19.4974 154.714 18.475C154.714 17.1926 155.034 16.1667 155.667 15.3938C156.304 14.6243 157.195 14.034 158.35 13.6335C159.502 13.2294 160.863 12.966 162.436 12.8325C164.009 12.7024 165.718 12.6392 167.572 12.6392V11.5606C167.572 10.9528 167.447 10.4433 167.2 10.0287C166.953 9.61765 166.542 9.30848 165.972 9.10117C165.401 8.89389 164.611 8.78847 163.598 8.78847C162.714 8.78847 161.977 8.87285 161.385 9.03449C160.793 9.19614 160.351 9.41746 160.063 9.688C159.77 9.95854 159.624 10.2677 159.624 10.6155V11.0407H155.49C155.469 10.9318 155.459 10.8298 155.459 10.7315V10.3872C155.459 9.38937 155.786 8.51803 156.443 7.7802C157.101 7.04237 158.048 6.46969 159.287 6.06917C160.525 5.66511 162.015 5.46484 163.758 5.46484C165.547 5.46484 167.033 5.66524 168.216 6.06917C169.403 6.46969 170.29 7.08455 170.882 7.91022C171.473 8.73588 171.769 9.80044 171.769 11.1074V18.8335C171.769 19.2481 171.874 19.5502 172.079 19.747C172.281 19.9438 172.556 20.0421 172.9 20.0421H174.226V22.8774C174.01 22.9652 173.659 23.0743 173.175 23.2042C172.691 23.3342 172.124 23.4011 171.48 23.4011C170.725 23.4011 170.106 23.2957 169.622 23.0918C169.138 22.8846 168.763 22.5894 168.491 22.21C168.223 21.8305 168.035 21.3878 167.927 20.8889H167.701C167.228 21.4124 166.65 21.8622 165.972 22.2416C165.293 22.6246 164.541 22.9162 163.713 23.1235C162.881 23.3308 161.973 23.4326 160.981 23.4326ZM162.144 20.0422C162.812 20.0422 163.469 19.9545 164.113 19.7822C164.761 19.6065 165.342 19.3606 165.86 19.0479C166.375 18.7317 166.789 18.3347 167.103 17.8568C167.416 17.379 167.572 16.845 167.572 16.2582V15.4431C165.784 15.4431 164.245 15.5204 162.951 15.6715C161.66 15.8227 160.668 16.1002 159.979 16.5042C159.29 16.9048 158.945 17.4774 158.945 18.2153C158.945 18.6509 159.088 19.0023 159.367 19.2763C159.645 19.5469 160.028 19.7436 160.511 19.8631C160.999 19.9826 161.542 20.0422 162.144 20.0422Z" fill="white"/>
<path d="M176.52 5.85547H180.716V23.0432H176.52V5.85547Z" fill="white"/>
<path d="M185.112 23.0426V5.85485H188.568L188.892 8.46533H189.149C189.643 7.79074 190.224 7.23213 190.893 6.7859C191.561 6.33969 192.288 6.00943 193.075 5.7916C193.861 5.57386 194.661 5.46484 195.479 5.46484C196.815 5.46484 197.957 5.68618 198.903 6.13243C199.85 6.57864 200.577 7.27427 201.085 8.21938C201.59 9.16452 201.844 10.3978 201.844 11.9226V23.0426H197.644V12.6709C197.644 11.9963 197.557 11.4307 197.386 10.9774C197.212 10.5172 196.965 10.1553 196.641 9.88127C196.321 9.61073 195.928 9.41745 195.465 9.29449C195.002 9.17848 194.487 9.11526 193.931 9.11526C193.109 9.11526 192.351 9.3014 191.651 9.67038C190.952 10.0428 190.388 10.5523 189.956 11.2022C189.525 11.8557 189.309 12.6182 189.309 13.486V23.0425L185.112 23.0426Z" fill="white"/>
</g>
<defs>
<clipPath id="clip0_744_6808">
<rect width="202.533" height="28" fill="white" transform="translate(0.234375)"/>
</clipPath>
</defs>
</svg>
