<svg width="20" height="20" viewBox="0 0 20 20" fill="none" xmlns="http://www.w3.org/2000/svg">
<path d="M10 20C8.02219 20 6.08879 19.4135 4.4443 18.3147C2.79981 17.2159 1.51809 15.6541 0.761209 13.8268C0.00433284 11.9996 -0.1937 9.98891 0.192152 8.0491C0.578004 6.10929 1.53041 4.32746 2.92894 2.92894C4.32746 1.53041 6.10929 0.578005 8.0491 0.192152C9.98891 -0.193701 11.9996 0.0043335 13.8268 0.761209C15.6541 1.51809 17.2159 2.79981 18.3147 4.4443C19.4135 6.08879 20 8.02219 20 10C19.9972 12.6513 18.9427 15.1932 17.068 17.068C15.1932 18.9427 12.6513 19.9972 10 20ZM18.426 10.7692H14.5962C14.4606 13.5058 13.6087 16.1029 12.1808 18.1731C13.8531 17.7241 15.3479 16.774 16.4643 15.4504C17.5808 14.1269 18.2653 12.4933 18.426 10.7692ZM10 1.54904C8.19904 3.49808 7.10673 6.26058 6.9452 9.23077H13.0548C12.8933 6.2625 11.801 3.49808 10 1.54904ZM6.9452 10.7692C7.10673 13.7375 8.1952 16.5019 10 18.451C11.801 16.5019 12.8933 13.7394 13.0548 10.7692H6.9452ZM7.81923 18.1731C6.39135 16.1029 5.53943 13.5058 5.40385 10.7692H1.57404C1.7347 12.4933 2.41924 14.1269 3.53567 15.4504C4.6521 16.774 6.14692 17.7241 7.81923 18.1731ZM1.57404 9.23077H5.40385C5.53943 6.49423 6.39135 3.89712 7.81923 1.82693C6.14692 2.2759 4.6521 3.22601 3.53567 4.54957C2.41924 5.87312 1.7347 7.5067 1.57404 9.23077ZM12.1808 1.82693C13.6087 3.9 14.4606 6.49712 14.5962 9.23077H18.426C18.2653 7.5067 17.5808 5.87312 16.4643 4.54957C15.3479 3.22601 13.8531 2.2759 12.1808 1.82693Z" fill="#6C90D9"/>
</svg>
