<svg width="23" height="18" viewBox="0 0 23 18" fill="none" xmlns="http://www.w3.org/2000/svg">
<path d="M22.285 2.25802C21.4737 2.62105 20.5992 2.85961 19.6932 2.9737C20.6203 2.42398 21.3367 1.55272 21.6739 0.50513C20.7994 1.02374 19.8301 1.38676 18.8082 1.59421C17.9758 0.702201 16.8064 0.183594 15.4789 0.183594C13.003 0.183594 10.9801 2.17505 10.9801 4.63325C10.9801 4.9859 11.0222 5.32818 11.096 5.64972C7.34525 5.46302 4.00541 3.68938 1.78236 1.00299C1.39254 1.65644 1.17129 2.42398 1.17129 3.23301C1.17129 4.77846 1.96147 6.14758 3.18362 6.92549C2.43558 6.92549 1.74022 6.71805 1.12915 6.40688V6.438C1.12915 8.59541 2.68844 10.4002 4.75345 10.8047C4.09046 10.9833 3.39443 11.0081 2.72005 10.8773C3.0062 11.7615 3.56663 12.5352 4.32255 13.0896C5.07847 13.644 5.99187 13.9513 6.93435 13.9682C5.33674 15.2133 3.3564 15.8863 1.31879 15.8767C0.960573 15.8767 0.602357 15.8559 0.244141 15.8144C2.24594 17.0798 4.62702 17.8162 7.17667 17.8162C15.4789 17.8162 20.0408 11.0329 20.0408 5.15185C20.0408 4.95478 20.0408 4.76808 20.0303 4.57101C20.9153 3.94868 21.6739 3.1604 22.285 2.25802Z" fill="#6C90D9"/>
</svg>
