<svg width="16" height="16" viewBox="0 0 16 16" fill="none" xmlns="http://www.w3.org/2000/svg">
<g clip-path="url(#clip0_1199_3097)">
<path d="M12.7635 6.08508H7.01878C6.31374 6.08508 5.74219 6.65663 5.74219 7.36168V13.1064C5.74219 13.8114 6.31374 14.383 7.01878 14.383H12.7635C13.4685 14.383 14.0401 13.8114 14.0401 13.1064V7.36168C14.0401 6.65663 13.4685 6.08508 12.7635 6.08508Z" stroke="#859BC8" stroke-width="1.60851" stroke-linecap="round" stroke-linejoin="round"/>
<path d="M3.18833 9.91489H2.55003C2.21146 9.91489 1.88675 9.78039 1.64734 9.54098C1.40794 9.30158 1.27344 8.97687 1.27344 8.63829V2.89362C1.27344 2.55504 1.40794 2.23033 1.64734 1.99093C1.88675 1.75152 2.21146 1.61702 2.55003 1.61702H8.29471C8.63329 1.61702 8.95799 1.75152 9.1974 1.99093C9.43681 2.23033 9.57131 2.55504 9.57131 2.89362V3.53191" stroke="#859BC8" stroke-width="1.60851" stroke-linecap="round" stroke-linejoin="round"/>
</g>
<defs>
<clipPath id="clip0_1199_3097">
<rect width="15.3191" height="15.3191" fill="white" transform="translate(0 0.340424)"/>
</clipPath>
</defs>
</svg>
