<svg width="16" height="16" viewBox="0 0 16 16" fill="none" xmlns="http://www.w3.org/2000/svg">
<path fill-rule="evenodd" clip-rule="evenodd" d="M10.251 2.89362C9.89847 2.89362 9.6127 2.60784 9.6127 2.25532C9.6127 1.9028 9.89847 1.61702 10.251 1.61702H14.0808C14.4333 1.61702 14.7191 1.9028 14.7191 2.25532V6.0851C14.7191 6.43763 14.4333 6.7234 14.0808 6.7234C13.7283 6.7234 13.4425 6.43763 13.4425 6.0851V3.79631L7.51085 9.72794C7.26158 9.97721 6.85743 9.97721 6.60816 9.72794C6.35889 9.47867 6.35889 9.07452 6.60816 8.82525L12.5398 2.89362H10.251ZM3.86802 4.80851C3.69873 4.80851 3.53638 4.87576 3.41667 4.99546C3.29697 5.11517 3.22972 5.27752 3.22972 5.44681V12.4681C3.22972 12.6374 3.29697 12.7997 3.41667 12.9194C3.53638 13.0391 3.69873 13.1064 3.86802 13.1064H10.8893C11.0586 13.1064 11.2209 13.0391 11.3406 12.9194C11.4603 12.7997 11.5276 12.6374 11.5276 12.4681V8.6383C11.5276 8.28577 11.8134 8 12.1659 8C12.5184 8 12.8042 8.28577 12.8042 8.6383V12.4681C12.8042 12.9759 12.6024 13.463 12.2433 13.8221C11.8842 14.1812 11.3972 14.383 10.8893 14.383H3.86802C3.36016 14.383 2.8731 14.1812 2.51398 13.8221C2.15487 13.463 1.95312 12.9759 1.95312 12.4681V5.44681C1.95312 4.93895 2.15487 4.45188 2.51398 4.09277C2.8731 3.73366 3.36016 3.53191 3.86802 3.53191H7.69781C8.05033 3.53191 8.3361 3.81769 8.3361 4.17021C8.3361 4.52273 8.05033 4.80851 7.69781 4.80851H3.86802Z" fill="#859BC8"/>
</svg>
