<svg width="25" height="25" viewBox="0 0 25 25" fill="none" xmlns="http://www.w3.org/2000/svg">
<path fill-rule="evenodd" clip-rule="evenodd" d="M4.26913 12.0348C5.09515 10.1798 7.44403 6.24999 12.5016 6.24999C17.5592 6.24999 19.9078 10.1799 20.7338 12.0349C20.8668 12.3338 20.8668 12.6661 20.7338 12.9651C19.9078 14.8201 17.5592 18.75 12.5016 18.75C7.44403 18.75 5.09515 14.8202 4.26913 12.9652C4.13599 12.6661 4.13599 12.3338 4.26913 12.0348ZM12.5016 4.16666C6.13828 4.16666 3.27149 9.1537 2.36594 11.1874C1.9926 12.0258 1.9926 12.9742 2.36594 13.8126C3.27149 15.8462 6.13828 20.8333 12.5016 20.8333C18.865 20.8333 21.7316 15.846 22.637 13.8124C23.0102 12.9742 23.0102 12.0258 22.637 11.1876C21.7316 9.15397 18.865 4.16666 12.5016 4.16666ZM8.33466 12.5C8.33466 10.1988 10.2001 8.33332 12.5013 8.33332C14.8025 8.33332 16.668 10.1988 16.668 12.5C16.668 14.8011 14.8025 16.6667 12.5013 16.6667C10.2001 16.6667 8.33466 14.8011 8.33466 12.5ZM12.5013 10.4167C12.4717 10.4167 12.4424 10.4173 12.4131 10.4185C12.4702 10.5809 12.5013 10.7555 12.5013 10.9375C12.5013 11.8004 11.8017 12.5 10.9388 12.5C10.7569 12.5 10.5823 12.4688 10.4199 12.4118C10.4186 12.441 10.418 12.4704 10.418 12.5C10.418 13.6506 11.3507 14.5833 12.5013 14.5833C13.652 14.5833 14.5847 13.6506 14.5847 12.5C14.5847 11.3494 13.652 10.4167 12.5013 10.4167Z" fill="#CADCFF"/>
</svg>
