<svg width="159" height="159" viewBox="0 0 159 159" fill="none" xmlns="http://www.w3.org/2000/svg">
<path d="M74.2967 79.5733C74.2967 73.8113 72.2583 68.8918 68.1814 64.8148C64.1044 60.7379 59.1849 58.6995 53.4229 58.6995C47.6608 58.6995 42.7414 60.7379 38.6644 64.8148C34.5875 68.8918 32.549 73.8113 32.549 79.5733C32.549 85.3354 34.5875 90.2548 38.6644 94.3318C42.7414 98.4087 47.6608 100.447 53.4229 100.447C59.1849 100.447 64.1044 98.4087 68.1814 94.3318C72.2583 90.2548 74.2967 85.3354 74.2967 79.5733ZM136.918 121.321C136.918 118.494 135.885 116.048 133.82 113.983C131.754 111.917 129.308 110.884 126.481 110.884C123.655 110.884 121.209 111.917 119.143 113.983C117.077 116.048 116.044 118.494 116.044 121.321C116.044 124.202 117.064 126.662 119.102 128.7C121.141 130.739 123.6 131.758 126.481 131.758C129.362 131.758 131.822 130.739 133.861 128.7C135.899 126.662 136.918 124.202 136.918 121.321ZM136.918 37.8256C136.918 34.9989 135.885 32.5528 133.82 30.4872C131.754 28.4215 129.308 27.3887 126.481 27.3887C123.655 27.3887 121.209 28.4215 119.143 30.4872C117.077 32.5528 116.044 34.9989 116.044 37.8256C116.044 40.7066 117.064 43.1664 119.102 45.2048C121.141 47.2433 123.6 48.2625 126.481 48.2625C129.362 48.2625 131.822 47.2433 133.861 45.2048C135.899 43.1664 136.918 40.7066 136.918 37.8256ZM105.608 72.1533V87.2379C105.608 87.7815 105.417 88.3115 105.037 88.8279C104.656 89.3443 104.221 89.6297 103.732 89.6841L91.0937 91.641C90.4957 93.5436 89.626 95.6092 88.4844 97.8379C90.3326 100.447 92.7788 103.573 95.8229 107.215C96.2034 107.758 96.3937 108.302 96.3937 108.846C96.3937 109.498 96.2034 110.014 95.8229 110.395C94.5726 112.026 92.3303 114.458 89.096 117.693C85.8616 120.927 83.728 122.544 82.6952 122.544C82.0973 122.544 81.5265 122.354 80.9829 121.973L71.606 114.635C69.5947 115.668 67.5019 116.51 65.3275 117.163C64.7296 123.033 64.1044 127.246 63.4521 129.801C63.0716 131.106 62.2562 131.758 61.006 131.758H45.8398C45.2419 131.758 44.6983 131.554 44.209 131.146C43.7198 130.739 43.448 130.263 43.3937 129.719L41.5183 117.244C39.6701 116.7 37.6316 115.858 35.4029 114.716L25.7814 121.973C25.4008 122.354 24.8573 122.544 24.1506 122.544C23.5526 122.544 22.9819 122.327 22.4383 121.892C14.6106 114.662 10.6967 110.313 10.6967 108.846C10.6967 108.356 10.887 107.84 11.2675 107.296C11.8111 106.535 12.9255 105.095 14.6106 102.975C16.2957 100.855 17.5732 99.1969 18.4429 98.001C17.1926 95.6092 16.2414 93.3805 15.5891 91.3148L3.1952 89.3579C2.65161 89.3036 2.18956 89.0454 1.80905 88.5833C1.42854 88.1213 1.23828 87.5913 1.23828 86.9933V71.9087C1.23828 71.3651 1.42854 70.8351 1.80905 70.3187C2.18956 69.8023 2.62444 69.5169 3.11367 69.4625L15.7521 67.5056C16.3501 65.6031 17.2198 63.5374 18.3614 61.3087C16.5132 58.6995 14.067 55.5738 11.0229 51.9318C10.6424 51.3338 10.4521 50.7902 10.4521 50.301C10.4521 49.6487 10.6424 49.1051 11.0229 48.6702C12.2188 47.0395 14.4475 44.6205 17.7091 41.4133C20.9706 38.2061 23.1178 36.6025 24.1506 36.6025C24.7485 36.6025 25.3193 36.7928 25.8629 37.1733L35.2398 44.5118C37.088 43.5333 39.1808 42.6636 41.5183 41.9025C42.1162 36.0318 42.7414 31.8461 43.3937 29.3456C43.7742 28.041 44.5896 27.3887 45.8398 27.3887H61.006C61.6039 27.3887 62.1475 27.5925 62.6367 28.0002C63.126 28.4079 63.3978 28.8836 63.4521 29.4272L65.3275 41.9025C67.1757 42.4461 69.2142 43.2887 71.4429 44.4302L81.0644 37.1733C81.4993 36.7928 82.0429 36.6025 82.6952 36.6025C83.2932 36.6025 83.8639 36.82 84.4075 37.2548C92.2352 44.4846 96.149 48.8333 96.149 50.301C96.149 50.7902 95.9588 51.3066 95.5783 51.8502C94.926 52.72 93.7844 54.1877 92.1537 56.2533C90.5229 58.3189 89.2998 59.9497 88.4844 61.1456C89.7347 63.7548 90.6588 65.9836 91.2567 67.8318L103.651 69.7072C104.194 69.8159 104.656 70.1013 105.037 70.5633C105.417 71.0254 105.608 71.5554 105.608 72.1533ZM157.792 115.613V127.029C157.792 127.898 153.742 128.741 145.643 129.556C144.991 131.024 144.175 132.437 143.197 133.796C145.969 139.939 147.355 143.69 147.355 145.049C147.355 145.266 147.246 145.456 147.029 145.619C140.397 149.479 137.027 151.409 136.918 151.409C136.483 151.409 135.233 150.131 133.168 147.576C131.102 145.022 129.689 143.173 128.928 142.032C127.84 142.14 127.025 142.195 126.481 142.195C125.938 142.195 125.122 142.14 124.035 142.032C123.274 143.173 121.861 145.022 119.795 147.576C117.73 150.131 116.479 151.409 116.044 151.409C115.936 151.409 112.565 149.479 105.934 145.619C105.716 145.456 105.608 145.266 105.608 145.049C105.608 143.69 106.994 139.939 109.766 133.796C108.788 132.437 107.972 131.024 107.32 129.556C99.2203 128.741 95.1706 127.898 95.1706 127.029V115.613C95.1706 114.744 99.2203 113.901 107.32 113.086C108.026 111.509 108.842 110.096 109.766 108.846C106.994 102.703 105.608 98.9523 105.608 97.5933C105.608 97.3759 105.716 97.1856 105.934 97.0225C106.151 96.9138 107.102 96.3702 108.788 95.3918C110.473 94.4133 112.076 93.4892 113.598 92.6195C115.12 91.7497 115.936 91.3148 116.044 91.3148C116.479 91.3148 117.73 92.5787 119.795 95.1064C121.861 97.6341 123.274 99.4687 124.035 100.61C125.122 100.502 125.938 100.447 126.481 100.447C127.025 100.447 127.84 100.502 128.928 100.61C131.7 96.7507 134.2 93.7066 136.429 91.4779L136.918 91.3148C137.136 91.3148 140.506 93.2174 147.029 97.0225C147.246 97.1856 147.355 97.3759 147.355 97.5933C147.355 98.9523 145.969 102.703 143.197 108.846C144.121 110.096 144.936 111.509 145.643 113.086C153.742 113.901 157.792 114.744 157.792 115.613ZM157.792 32.1179V43.5333C157.792 44.4031 153.742 45.2456 145.643 46.061C144.991 47.5287 144.175 48.942 143.197 50.301C145.969 56.4436 147.355 60.1943 147.355 61.5533C147.355 61.7707 147.246 61.961 147.029 62.1241C140.397 65.9836 137.027 67.9133 136.918 67.9133C136.483 67.9133 135.233 66.6359 133.168 64.081C131.102 61.5261 129.689 59.6779 128.928 58.5364C127.84 58.6451 127.025 58.6995 126.481 58.6995C125.938 58.6995 125.122 58.6451 124.035 58.5364C123.274 59.6779 121.861 61.5261 119.795 64.081C117.73 66.6359 116.479 67.9133 116.044 67.9133C115.936 67.9133 112.565 65.9836 105.934 62.1241C105.716 61.961 105.608 61.7707 105.608 61.5533C105.608 60.1943 106.994 56.4436 109.766 50.301C108.788 48.942 107.972 47.5287 107.32 46.061C99.2203 45.2456 95.1706 44.4031 95.1706 43.5333V32.1179C95.1706 31.2482 99.2203 30.4056 107.32 29.5902C108.026 28.0138 108.842 26.6005 109.766 25.3502C106.994 19.2077 105.608 15.4569 105.608 14.0979C105.608 13.8805 105.716 13.6902 105.934 13.5272C106.151 13.4184 107.102 12.8748 108.788 11.8964C110.473 10.9179 112.076 9.99382 113.598 9.12407C115.12 8.25433 115.936 7.81946 116.044 7.81946C116.479 7.81946 117.73 9.08331 119.795 11.611C121.861 14.1387 123.274 15.9733 124.035 17.1149C125.122 17.0061 125.938 16.9518 126.481 16.9518C127.025 16.9518 127.84 17.0061 128.928 17.1149C131.7 13.2554 134.2 10.2113 136.429 7.98254L136.918 7.81946C137.136 7.81946 140.506 9.72203 147.029 13.5272C147.246 13.6902 147.355 13.8805 147.355 14.0979C147.355 15.4569 145.969 19.2077 143.197 25.3502C144.121 26.6005 144.936 28.0138 145.643 29.5902C153.742 30.4056 157.792 31.2482 157.792 32.1179Z" fill="#E6E6E6" fill-opacity="0.6"/>
</svg>
