<svg width="175" height="231" viewBox="0 0 175 231" fill="none" xmlns="http://www.w3.org/2000/svg">
<path fill-rule="evenodd" clip-rule="evenodd" d="M132.187 23.3173C134.666 25.3104 136.107 28.3195 136.107 31.5001V39.3751H207.376C213.175 39.3751 217.876 44.0761 217.876 49.8751V196.875C217.876 202.674 213.175 207.375 207.376 207.375H136.107V215.25C136.107 218.431 134.666 221.44 132.187 223.433C129.708 225.426 126.46 226.188 123.353 225.505L39.7471 207.13C34.9315 206.072 31.501 201.806 31.501 196.875V49.8751C31.501 44.9446 34.9315 40.6782 39.7471 39.6199L123.353 21.2449C126.46 20.5621 129.708 21.3242 132.187 23.3173ZM115.107 202.192V44.5584L52.501 58.318V188.432L115.107 202.192ZM136.107 186.375H196.876V60.3751H136.107V186.375ZM97.126 103.688C102.925 103.688 107.626 108.389 107.626 114.188V132.563C107.626 138.362 102.925 143.063 97.126 143.063C91.327 143.063 86.626 138.362 86.626 132.563V114.188C86.626 108.389 91.327 103.688 97.126 103.688Z" fill="url(#paint0_linear_744_6913)"/>
<defs>
<linearGradient id="paint0_linear_744_6913" x1="124.688" y1="21" x2="124.688" y2="225.75" gradientUnits="userSpaceOnUse">
<stop stop-color="#4263A6" stop-opacity="0.71"/>
<stop offset="1" stop-color="#E5E5E5" stop-opacity="0"/>
</linearGradient>
</defs>
</svg>
