<svg width="192" height="227" viewBox="0 0 192 227" fill="none" xmlns="http://www.w3.org/2000/svg">
<path fill-rule="evenodd" clip-rule="evenodd" d="M54.7917 65.75C54.7917 47.5937 69.5104 32.875 87.6667 32.875H131.5C149.657 32.875 164.375 47.5937 164.375 65.75C164.375 80.9105 154.113 93.6741 140.156 97.4735C141.642 101.221 142.458 105.307 142.458 109.583C142.458 115.443 140.925 120.943 138.239 125.707C140.332 127.047 142.263 128.617 143.997 130.381C137.947 134.607 132.79 140.022 128.865 146.288C126.855 143.944 123.872 142.458 120.542 142.458H76.7083C70.6563 142.458 65.75 147.364 65.75 153.417C65.75 159.469 70.6563 164.375 76.7083 164.375H120.542C120.915 164.375 121.285 164.356 121.648 164.32C120.923 167.877 120.542 171.561 120.542 175.333C120.542 190.854 126.995 204.867 137.364 214.836C131.535 224.026 121.271 230.125 109.583 230.125H65.75C47.5937 230.125 32.875 215.407 32.875 197.25C32.875 185.609 38.925 175.382 48.0522 169.541C45.366 164.776 43.8333 159.276 43.8333 153.417C43.8333 147.557 45.366 142.057 48.0522 137.293C38.9251 131.452 32.875 121.224 32.875 109.583C32.875 94.4228 43.1372 81.6592 57.0939 77.8598C55.6082 74.1122 54.7917 70.0265 54.7917 65.75ZM109.583 98.625C115.636 98.625 120.542 103.531 120.542 109.583C120.542 115.636 115.636 120.542 109.583 120.542H65.75C59.6979 120.542 54.7917 115.636 54.7917 109.583C54.7917 103.531 59.6979 98.625 65.75 98.625H109.583ZM131.5 76.7083H87.6667C81.6146 76.7083 76.7083 71.8021 76.7083 65.75C76.7083 59.6979 81.6146 54.7917 87.6667 54.7917H131.5C137.552 54.7917 142.458 59.6979 142.458 65.75C142.458 71.8021 137.552 76.7083 131.5 76.7083ZM109.583 186.292C115.636 186.292 120.542 191.198 120.542 197.25C120.542 203.302 115.636 208.208 109.583 208.208H65.75C59.6979 208.208 54.7917 203.302 54.7917 197.25C54.7917 191.198 59.6979 186.292 65.75 186.292H109.583Z" fill="url(#paint0_linear_744_6922)" fill-opacity="0.71"/>
<path fill-rule="evenodd" clip-rule="evenodd" d="M175.333 142.46C157.176 142.46 142.458 157.178 142.458 175.335C142.458 193.491 157.176 208.21 175.333 208.21C193.49 208.21 208.208 193.491 208.208 175.335C208.208 157.178 193.49 142.46 175.333 142.46ZM120.541 175.335C120.541 145.074 145.072 120.543 175.333 120.543C205.593 120.543 230.124 145.074 230.124 175.335C230.124 205.595 205.593 230.126 175.333 230.126C145.072 230.126 120.541 205.595 120.541 175.335Z" fill="url(#paint1_linear_744_6922)" fill-opacity="0.71"/>
<defs>
<linearGradient id="paint0_linear_744_6922" x1="98.625" y1="32.875" x2="98.625" y2="230.125" gradientUnits="userSpaceOnUse">
<stop stop-color="#4263A6"/>
<stop offset="1" stop-color="#D9D9D9" stop-opacity="0"/>
</linearGradient>
<linearGradient id="paint1_linear_744_6922" x1="175.333" y1="120.543" x2="175.333" y2="230.126" gradientUnits="userSpaceOnUse">
<stop stop-color="#4263A6"/>
<stop offset="1" stop-color="#D9D9D9" stop-opacity="0"/>
</linearGradient>
</defs>
</svg>
